<svg width="26" height="26" viewBox="0 0 26 26" fill="none" xmlns="http://www.w3.org/2000/svg">
<path d="M13 24.375C9.98316 24.375 7.08989 23.1766 4.95666 21.0433C2.82343 18.9101 1.625 16.0168 1.625 13C1.625 9.98316 2.82343 7.08989 4.95666 4.95666C7.08989 2.82343 9.98316 1.625 13 1.625C16.0168 1.625 18.9101 2.82343 21.0433 4.95666C23.1766 7.08989 24.375 9.98316 24.375 13C24.375 16.0168 23.1766 18.9101 21.0433 21.0433C18.9101 23.1766 16.0168 24.375 13 24.375ZM13 26C16.4478 26 19.7544 24.6304 22.1924 22.1924C24.6304 19.7544 26 16.4478 26 13C26 9.55219 24.6304 6.24558 22.1924 3.80761C19.7544 1.36964 16.4478 0 13 0C9.55219 0 6.24558 1.36964 3.80761 3.80761C1.36964 6.24558 0 9.55219 0 13C0 16.4478 1.36964 19.7544 3.80761 22.1924C6.24558 24.6304 9.55219 26 13 26Z" fill="#008D3E"/>
<path d="M8.54038 9.40225C8.53816 9.45473 8.54669 9.50711 8.56546 9.55616C8.58423 9.60522 8.61283 9.64992 8.64951 9.68752C8.68619 9.72511 8.73018 9.75481 8.77876 9.77477C8.82734 9.79474 8.87949 9.80456 8.93201 9.80363H10.2726C10.4969 9.80363 10.6756 9.62 10.7049 9.39738C10.8511 8.33138 11.5824 7.55463 12.8856 7.55463C14.0004 7.55463 15.0209 8.112 15.0209 9.45263C15.0209 10.4845 14.4131 10.959 13.4528 11.6805C12.3591 12.4751 11.493 13.403 11.5548 14.9094L11.5596 15.262C11.5613 15.3686 11.6049 15.4703 11.6809 15.5451C11.7569 15.6199 11.8593 15.6618 11.9659 15.6617H13.2838C13.3915 15.6617 13.4948 15.6189 13.571 15.5428C13.6472 15.4666 13.69 15.3632 13.69 15.2555V15.0849C13.69 13.9181 14.1336 13.5785 15.3313 12.6701C16.3209 11.9178 17.3528 11.0825 17.3528 9.32913C17.3528 6.87375 15.2793 5.6875 13.0091 5.6875C10.9503 5.6875 8.69476 6.64625 8.54038 9.40225ZM11.0705 18.7671C11.0705 19.6333 11.7611 20.2735 12.7118 20.2735C13.7014 20.2735 14.3823 19.6333 14.3823 18.7671C14.3823 17.8701 13.6998 17.2396 12.7101 17.2396C11.7611 17.2396 11.0705 17.8701 11.0705 18.7671Z" fill="#008D3E"/>
</svg>
