<svg width="18" height="26" viewBox="0 0 18 26" fill="none" xmlns="http://www.w3.org/2000/svg">
<path d="M14.56 0H3.44C1.51 0 0 1.24 0 2.83V23.17C0.0325647 23.7758 0.256249 24.3557 0.638935 24.8264C1.02162 25.2971 1.54363 25.6345 2.13 25.79C2.576 25.9391 3.05678 25.9491 3.5086 25.8187C3.96043 25.6883 4.36197 25.4238 4.66 25.06L9 19.58L13.36 25.06C13.658 25.4238 14.0596 25.6883 14.5114 25.8187C14.9632 25.9491 15.444 25.9391 15.89 25.79C16.4727 25.6309 16.9903 25.292 17.3691 24.8216C17.7479 24.3511 17.9687 23.7732 18 23.17V2.83C18 1.24 16.49 0 14.56 0ZM16 23.17C16 23.45 15.69 23.74 15.23 23.89C15.1739 23.9102 15.1133 23.9144 15.055 23.902C14.9967 23.8896 14.943 23.8612 14.9 23.82L10.54 18.33C10.3523 18.1035 10.117 17.9212 9.85083 17.7961C9.58464 17.671 9.29413 17.6061 9 17.6061C8.70587 17.6061 8.41536 17.671 8.14917 17.7961C7.88298 17.9212 7.64767 18.1035 7.46 18.33L3.1 23.82C3.05484 23.8611 2.99944 23.8893 2.93961 23.9017C2.87978 23.914 2.81773 23.91 2.76 23.89C2.31 23.74 2 23.45 2 23.17V2.83C2 2.44 2.61 2 3.44 2H14.56C15.39 2 16 2.44 16 2.83V23.17Z" fill="#008D3E"/>
</svg>
