<svg width="20" height="20" viewBox="0 0 20 20" fill="none" xmlns="http://www.w3.org/2000/svg">
<path d="M10.0002 19.8002C15.4126 19.8002 19.8002 15.4126 19.8002 10.0002C19.8002 4.5878 15.4126 0.200195 10.0002 0.200195C4.5878 0.200195 0.200195 4.5878 0.200195 10.0002C0.200195 15.4126 4.5878 19.8002 10.0002 19.8002Z" fill="#F7931A"/>
<path d="M13.2944 9.4824C13.6534 9.1412 13.9266 8.607 13.8474 7.777C13.6908 6.1692 12.0836 5.8408 11.259 5.7444V4.3C11.259 4.1344 11.1246 4 10.959 4H9.8932C9.7276 4 9.5932 4.1344 9.5932 4.3V5.6834H9.3414V4.3C9.3414 4.1344 9.207 4 9.0414 4H7.9836C7.818 4 7.6836 4.1344 7.6836 4.3V5.7272H5.8218C5.6562 5.7272 5.5218 5.8616 5.5218 6.0272V7.1514C5.5182 7.3154 5.6648 7.456 5.827 7.4514C6.113 7.4462 6.4522 7.4434 6.5434 7.4468C6.7002 7.442 6.8624 7.465 6.9024 7.6398L6.903 12.323C6.9018 12.3406 6.8934 12.3568 6.8744 12.373C6.6612 12.4242 6.4292 12.3818 6.028 12.3894C5.8734 12.3832 5.7508 12.4946 5.7272 12.6418L5.5254 13.8974C5.4932 14.0734 5.6422 14.2496 5.8216 14.245H7.6632V15.7C7.6632 15.8656 7.7976 16 7.9632 16H9.029C9.1946 16 9.329 15.8656 9.329 15.7V14.2708H9.5808V15.692C9.5808 15.8576 9.7152 15.992 9.8808 15.992H10.9486C11.1142 15.992 11.2486 15.8576 11.2486 15.692V14.2366C12.7776 14.1112 14.2812 13.6732 14.4608 11.7784C14.5676 10.6552 14.1756 9.8856 13.2944 9.4824Z" fill="white"/>
<path d="M9.36548 7.51709C9.99768 7.52769 11.2343 7.43109 11.2605 8.27969C11.2309 9.09029 9.97088 9.01729 9.36548 9.03249V7.51709ZM11.5833 11.9707C11.1413 12.4065 9.98848 12.4117 9.36328 12.4027V10.6785C9.99268 10.6649 11.1271 10.6465 11.5735 11.0833C11.8069 11.2951 11.8233 11.7519 11.5833 11.9707Z" fill="#F7931A"/>
</svg>
