<svg width="32" height="32" viewBox="0 0 32 32" fill="none" xmlns="http://www.w3.org/2000/svg">
<path d="M27 6H5C4.20435 6 3.44129 6.31607 2.87868 6.87868C2.31607 7.44129 2 8.20435 2 9V23C2 23.7956 2.31607 24.5587 2.87868 25.1213C3.44129 25.6839 4.20435 26 5 26H27C27.7956 26 28.5587 25.6839 29.1213 25.1213C29.6839 24.5587 30 23.7956 30 23V9C30 8.20435 29.6839 7.44129 29.1213 6.87868C28.5587 6.31607 27.7956 6 27 6ZM5 8H27C27.2652 8 27.5196 8.10536 27.7071 8.29289C27.8946 8.48043 28 8.73478 28 9V11H4V9C4 8.73478 4.10536 8.48043 4.29289 8.29289C4.48043 8.10536 4.73478 8 5 8ZM27 24H5C4.73478 24 4.48043 23.8946 4.29289 23.7071C4.10536 23.5196 4 23.2652 4 23V15H28V23C28 23.2652 27.8946 23.5196 27.7071 23.7071C27.5196 23.8946 27.2652 24 27 24Z" fill="#008D3E"/>
<path d="M25 21H16V23H25V21Z" fill="#008D3E"/>
</svg>
