<svg width="32" height="32" viewBox="0 0 32 32" fill="none" xmlns="http://www.w3.org/2000/svg">
<g clip-path="url(#clip0_110_2387)">
<path d="M29.6 20.8C29.3268 20.8027 29.0562 20.8525 28.8 20.9474V18.4C28.8 18.1878 28.7157 17.9843 28.5657 17.8343C28.4157 17.6843 28.2122 17.6 28 17.6H24V14.4H28C28.2122 14.4 28.4157 14.3157 28.5657 14.1657C28.7157 14.0157 28.8 13.8122 28.8 13.6V11.0526C29.0562 11.1475 29.3268 11.1973 29.6 11.2C30.0747 11.2 30.5387 11.0592 30.9334 10.7955C31.328 10.5318 31.6357 10.157 31.8173 9.71844C31.999 9.2799 32.0465 8.79734 31.9539 8.33178C31.8613 7.86623 31.6327 7.43859 31.2971 7.10294C30.9614 6.7673 30.5338 6.53872 30.0682 6.44612C29.6027 6.35351 29.1201 6.40104 28.6816 6.58269C28.243 6.76434 27.8682 7.07195 27.6045 7.46663C27.3408 7.86131 27.2 8.32533 27.2 8.8V12.8H24V8.8C24 8.58783 23.9157 8.38434 23.7657 8.23431C23.6157 8.08429 23.4122 8 23.2 8H19.2V4.8H23.2C23.6747 4.8 24.1387 4.65924 24.5334 4.39553C24.928 4.13181 25.2357 3.75698 25.4173 3.31844C25.599 2.8799 25.6465 2.39734 25.5539 1.93178C25.4613 1.46623 25.2327 1.03859 24.8971 0.702945C24.5614 0.367299 24.1338 0.138721 23.6682 0.0461164C23.2027 -0.0464881 22.7201 0.00103989 22.2816 0.18269C21.843 0.36434 21.4682 0.671954 21.2045 1.06663C20.9408 1.46131 20.8 1.92533 20.8 2.4C20.8027 2.67317 20.8525 2.94381 20.9474 3.2H18.4C18.1878 3.2 17.9843 3.28429 17.8343 3.43432C17.6843 3.58434 17.6 3.78783 17.6 4V8H14.4V4C14.4 3.78783 14.3157 3.58434 14.1657 3.43432C14.0157 3.28429 13.8122 3.2 13.6 3.2H11.0526C11.1475 2.94381 11.1973 2.67317 11.2 2.4C11.2 1.92533 11.0592 1.46131 10.7955 1.06663C10.5318 0.671954 10.157 0.36434 9.71844 0.18269C9.2799 0.00103989 8.79734 -0.0464881 8.33178 0.0461164C7.86623 0.138721 7.43859 0.367299 7.10294 0.702945C6.7673 1.03859 6.53872 1.46623 6.44612 1.93178C6.35351 2.39734 6.40104 2.8799 6.58269 3.31844C6.76434 3.75698 7.07195 4.13181 7.46663 4.39553C7.86131 4.65924 8.32533 4.8 8.8 4.8H12.8V8H8.8C8.58783 8 8.38434 8.08429 8.23431 8.23431C8.08429 8.38434 8 8.58783 8 8.8V12.8H4.8V8.8C4.8 8.32533 4.65924 7.86131 4.39553 7.46663C4.13181 7.07195 3.75698 6.76434 3.31844 6.58269C2.8799 6.40104 2.39734 6.35351 1.93178 6.44612C1.46623 6.53872 1.03859 6.7673 0.702945 7.10294C0.367299 7.43859 0.138721 7.86623 0.0461164 8.33178C-0.0464881 8.79734 0.00103989 9.2799 0.18269 9.71844C0.36434 10.157 0.671954 10.5318 1.06663 10.7955C1.46131 11.0592 1.92533 11.2 2.4 11.2C2.67317 11.1973 2.94381 11.1475 3.2 11.0526V13.6C3.2 13.8122 3.28429 14.0157 3.43432 14.1657C3.58434 14.3157 3.78783 14.4 4 14.4H8V17.6H4C3.78783 17.6 3.58434 17.6843 3.43432 17.8343C3.28429 17.9843 3.2 18.1878 3.2 18.4V20.9474C2.94381 20.8525 2.67317 20.8027 2.4 20.8C1.92533 20.8 1.46131 20.9408 1.06663 21.2045C0.671954 21.4682 0.36434 21.843 0.18269 22.2816C0.00103989 22.7201 -0.0464881 23.2027 0.0461164 23.6682C0.138721 24.1338 0.367299 24.5614 0.702945 24.8971C1.03859 25.2327 1.46623 25.4613 1.93178 25.5539C2.39734 25.6465 2.8799 25.599 3.31844 25.4173C3.75698 25.2357 4.13181 24.928 4.39553 24.5334C4.65924 24.1387 4.8 23.6747 4.8 23.2V19.2H8V23.2C8 23.4122 8.08429 23.6157 8.23431 23.7657C8.38434 23.9157 8.58783 24 8.8 24H12.8V27.2H8.8C8.32533 27.2 7.86131 27.3408 7.46663 27.6045C7.07195 27.8682 6.76434 28.243 6.58269 28.6816C6.40104 29.1201 6.35351 29.6027 6.44612 30.0682C6.53872 30.5338 6.7673 30.9614 7.10294 31.2971C7.43859 31.6327 7.86623 31.8613 8.33178 31.9539C8.79734 32.0465 9.2799 31.999 9.71844 31.8173C10.157 31.6357 10.5318 31.328 10.7955 30.9334C11.0592 30.5387 11.2 30.0747 11.2 29.6C11.1973 29.3268 11.1475 29.0562 11.0526 28.8H13.6C13.8122 28.8 14.0157 28.7157 14.1657 28.5657C14.3157 28.4157 14.4 28.2122 14.4 28V24H17.6V28C17.6 28.2122 17.6843 28.4157 17.8343 28.5657C17.9843 28.7157 18.1878 28.8 18.4 28.8H20.9474C20.8525 29.0562 20.8027 29.3268 20.8 29.6C20.8 30.0747 20.9408 30.5387 21.2045 30.9334C21.4682 31.328 21.843 31.6357 22.2816 31.8173C22.7201 31.999 23.2027 32.0465 23.6682 31.9539C24.1338 31.8613 24.5614 31.6327 24.8971 31.2971C25.2327 30.9614 25.4613 30.5338 25.5539 30.0682C25.6465 29.6027 25.599 29.1201 25.4173 28.6816C25.2357 28.243 24.928 27.8682 24.5334 27.6045C24.1387 27.3408 23.6747 27.2 23.2 27.2H19.2V24H23.2C23.4122 24 23.6157 23.9157 23.7657 23.7657C23.9157 23.6157 24 23.4122 24 23.2V19.2H27.2V23.2C27.2 23.6747 27.3408 24.1387 27.6045 24.5334C27.8682 24.928 28.243 25.2357 28.6816 25.4173C29.1201 25.599 29.6027 25.6465 30.0682 25.5539C30.5338 25.4613 30.9614 25.2327 31.2971 24.8971C31.6327 24.5614 31.8613 24.1338 31.9539 23.6682C32.0465 23.2027 31.999 22.7201 31.8173 22.2816C31.6357 21.843 31.328 21.4682 30.9334 21.2045C30.5387 20.9408 30.0747 20.8 29.6 20.8ZM29.6 8C29.7582 8 29.9129 8.04692 30.0445 8.13482C30.176 8.22273 30.2786 8.34767 30.3391 8.49385C30.3997 8.64003 30.4155 8.80089 30.3846 8.95607C30.3538 9.11126 30.2776 9.2538 30.1657 9.36569C30.0538 9.47757 29.9113 9.55376 29.7561 9.58463C29.6009 9.6155 29.44 9.59965 29.2939 9.5391C29.1477 9.47855 29.0227 9.37602 28.9348 9.24446C28.8469 9.1129 28.8 8.95823 28.8 8.8C28.8001 8.58787 28.8845 8.38446 29.0345 8.23446C29.1845 8.08445 29.3879 8.00013 29.6 8ZM22.4 2.4C22.4 2.24178 22.4469 2.0871 22.5348 1.95554C22.6227 1.82399 22.7477 1.72145 22.8939 1.6609C23.04 1.60035 23.2009 1.5845 23.3561 1.61537C23.5113 1.64624 23.6538 1.72243 23.7657 1.83432C23.8776 1.9462 23.9538 2.08874 23.9846 2.24393C24.0155 2.39911 23.9997 2.55997 23.9391 2.70615C23.8786 2.85233 23.776 2.97727 23.6445 3.06518C23.5129 3.15308 23.3582 3.2 23.2 3.2C22.9879 3.19987 22.7845 3.11555 22.6345 2.96555C22.4845 2.81554 22.4001 2.61213 22.4 2.4ZM8.8 1.6C8.95823 1.6 9.1129 1.64692 9.24446 1.73483C9.37602 1.82273 9.47855 1.94767 9.5391 2.09385C9.59965 2.24004 9.6155 2.40089 9.58463 2.55607C9.55376 2.71126 9.47757 2.8538 9.36569 2.96569C9.2538 3.07757 9.11126 3.15376 8.95607 3.18463C8.80089 3.2155 8.64003 3.19965 8.49385 3.1391C8.34767 3.07855 8.22273 2.97602 8.13482 2.84446C8.04692 2.7129 8 2.55823 8 2.4C8.00013 2.18787 8.08445 1.98446 8.23446 1.83446C8.38446 1.68445 8.58787 1.60013 8.8 1.6ZM2.4 9.6C2.24178 9.6 2.0871 9.55308 1.95554 9.46518C1.82399 9.37727 1.72145 9.25233 1.6609 9.10615C1.60035 8.95997 1.5845 8.79911 1.61537 8.64393C1.64624 8.48874 1.72243 8.3462 1.83432 8.23431C1.9462 8.12243 2.08874 8.04624 2.24393 8.01537C2.39911 7.9845 2.55997 8.00035 2.70615 8.0609C2.85233 8.12145 2.97727 8.22398 3.06518 8.35554C3.15308 8.4871 3.2 8.64178 3.2 8.8C3.19987 9.01213 3.11555 9.21554 2.96555 9.36555C2.81554 9.51555 2.61213 9.59987 2.4 9.6ZM2.4 24C2.24178 24 2.0871 23.9531 1.95554 23.8652C1.82399 23.7773 1.72145 23.6523 1.6609 23.5061C1.60035 23.36 1.5845 23.1991 1.61537 23.0439C1.64624 22.8887 1.72243 22.7462 1.83432 22.6343C1.9462 22.5224 2.08874 22.4462 2.24393 22.4154C2.39911 22.3845 2.55997 22.4003 2.70615 22.4609C2.85233 22.5214 2.97727 22.624 3.06518 22.7555C3.15308 22.8871 3.2 23.0418 3.2 23.2C3.19987 23.4121 3.11555 23.6155 2.96555 23.7655C2.81554 23.9155 2.61213 23.9999 2.4 24ZM9.6 29.6C9.6 29.7582 9.55308 29.9129 9.46518 30.0445C9.37727 30.176 9.25233 30.2786 9.10615 30.3391C8.95997 30.3997 8.79911 30.4155 8.64393 30.3846C8.48874 30.3538 8.3462 30.2776 8.23431 30.1657C8.12243 30.0538 8.04624 29.9113 8.01537 29.7561C7.9845 29.6009 8.00035 29.44 8.0609 29.2939C8.12145 29.1477 8.22398 29.0227 8.35554 28.9348C8.4871 28.8469 8.64178 28.8 8.8 28.8C9.01213 28.8001 9.21554 28.8845 9.36555 29.0345C9.51555 29.1845 9.59987 29.3879 9.6 29.6ZM23.2 30.4C23.0418 30.4 22.8871 30.3531 22.7555 30.2652C22.624 30.1773 22.5214 30.0523 22.4609 29.9061C22.4003 29.76 22.3845 29.5991 22.4154 29.4439C22.4462 29.2887 22.5224 29.1462 22.6343 29.0343C22.7462 28.9224 22.8887 28.8462 23.0439 28.8154C23.1991 28.7845 23.36 28.8003 23.5061 28.8609C23.6523 28.9214 23.7773 29.024 23.8652 29.1555C23.9531 29.2871 24 29.4418 24 29.6C23.9999 29.8121 23.9155 30.0155 23.7655 30.1655C23.6155 30.3155 23.4121 30.3999 23.2 30.4ZM22.4 22.4H9.6V9.6H22.4V22.4ZM29.6 24C29.4418 24 29.2871 23.9531 29.1555 23.8652C29.024 23.7773 28.9214 23.6523 28.8609 23.5061C28.8003 23.36 28.7845 23.1991 28.8154 23.0439C28.8462 22.8887 28.9224 22.7462 29.0343 22.6343C29.1462 22.5224 29.2887 22.4462 29.4439 22.4154C29.5991 22.3845 29.76 22.4003 29.9061 22.4609C30.0523 22.5214 30.1773 22.624 30.2652 22.7555C30.3531 22.8871 30.4 23.0418 30.4 23.2C30.3999 23.4121 30.3155 23.6155 30.1655 23.7655C30.0155 23.9155 29.8121 23.9999 29.6 24Z" fill="#008D3E"/>
<path d="M19.3333 12H12.6667C12.4899 12 12.3203 12.0702 12.1953 12.1953C12.0702 12.3203 12 12.4899 12 12.6667V19.3333C12 19.5101 12.0702 19.6797 12.1953 19.8047C12.3203 19.9298 12.4899 20 12.6667 20H19.3333C19.5101 20 19.6797 19.9298 19.8047 19.8047C19.9298 19.6797 20 19.5101 20 19.3333V12.6667C20 12.4899 19.9298 12.3203 19.8047 12.1953C19.6797 12.0702 19.5101 12 19.3333 12ZM18.6667 18.6667H13.3333V13.3333H18.6667V18.6667Z" fill="#008D3E"/>
</g>
<defs>
<clipPath id="clip0_110_2387">
<rect width="32" height="32" fill="white"/>
</clipPath>
</defs>
</svg>
