<svg width="32" height="32" viewBox="0 0 32 32" fill="none" xmlns="http://www.w3.org/2000/svg">
<path fill-rule="evenodd" clip-rule="evenodd" d="M7.22162 25.7216H7.22658H10.8212H11.0212V25.9216C11.0212 27.188 11.5243 28.4026 12.4198 29.2982C13.3154 30.1937 14.53 30.6968 15.7965 30.6968C17.0629 30.6968 18.2775 30.1937 19.1731 29.2982C20.0686 28.4026 20.5717 27.188 20.5717 25.9216V25.7216H20.7717H24.3663H24.3713C25.2323 25.743 26.0731 25.4587 26.7443 24.919C27.415 24.3799 27.8731 23.6209 28.0377 22.7764C28.1588 22.0533 28.0517 21.3103 27.7314 20.6508C27.4108 19.9904 26.8923 19.4464 26.2481 19.0944L26.2388 19.089C26.0339 18.9623 25.8665 18.7834 25.7537 18.5706C25.6416 18.3591 25.5874 18.1217 25.5967 17.8825V13.8434C25.6043 11.854 25.0312 9.90551 23.9477 8.23696C22.8642 6.56841 21.3174 5.25225 19.497 4.44983L19.3967 4.40562L19.38 4.29728C19.2515 3.46374 18.829 2.70369 18.1888 2.15461C17.5487 1.60554 16.7331 1.30371 15.8897 1.30371C15.0464 1.30371 14.2308 1.60554 13.5907 2.15461C12.9505 2.70369 12.528 3.46374 12.3995 4.29728L12.3821 4.41031L12.2758 4.45262C11.091 4.92456 10.0102 5.62437 9.09474 6.51241L9.09235 6.51469C8.13885 7.40953 7.37714 8.48879 6.85346 9.68697C6.32988 10.8849 6.05515 12.1768 6.04596 13.4841V17.8825C6.05523 18.1217 6.00108 18.3591 5.88895 18.5706C5.77614 18.7834 5.60872 18.9623 5.40388 19.089L5.39213 19.0957C4.73924 19.4408 4.21095 19.9818 3.88155 20.6427C3.55262 21.3027 3.43855 22.049 3.55528 22.7771C3.71999 23.6213 4.1781 24.3801 4.84855 24.919C5.51984 25.4587 6.3606 25.743 7.22162 25.7216ZM13.3088 25.7216H13.1088V25.9216C13.1088 26.6344 13.392 27.318 13.896 27.822C14.4 28.326 15.0837 28.6092 15.7965 28.6092C16.5093 28.6092 17.1929 28.326 17.6969 27.822C18.2009 27.318 18.4841 26.6344 18.4841 25.9216V25.7216H18.2841H13.3088ZM8.13356 17.8866L8.13359 17.8889C8.14069 18.5037 7.98309 19.1092 7.67715 19.6425C7.37175 20.1749 6.92966 20.616 6.39663 20.9202C6.12673 21.0626 5.90889 21.287 5.77444 21.5611C5.63947 21.8362 5.59554 22.1472 5.64902 22.4489L5.65031 22.4562L5.65213 22.4633C5.74062 22.8113 5.94671 23.1179 6.23547 23.3312C6.52285 23.5435 6.87452 23.6504 7.23134 23.634H24.3751C24.7319 23.6466 25.0821 23.5361 25.3671 23.3211C25.6532 23.1052 25.856 22.7972 25.9412 22.4492L25.943 22.442L25.9442 22.4347C25.9944 22.1351 25.9489 21.8274 25.8141 21.5552C25.6798 21.284 25.4637 21.062 25.1965 20.9203C24.6633 20.6161 24.2212 20.175 23.9157 19.6425C23.6098 19.1092 23.4522 18.5037 23.4593 17.8889V17.8866V13.8444C23.4648 12.3458 23.0555 10.8749 22.2769 9.59444C21.4982 8.31384 20.3804 7.27363 19.0471 6.58896L19.0454 6.58813C18.1105 6.1189 17.0852 5.85701 16.0397 5.82059H16.0328H15.7968C14.6694 5.81859 13.5562 6.07158 12.5404 6.56062C11.7679 6.90703 11.0628 7.38737 10.4577 7.97944C9.74058 8.67585 9.31027 9.65242 8.9214 10.5733C8.53254 11.4942 8.13264 12.484 8.13358 13.4837L8.13356 17.8866Z" fill="#008D3E"/>
<path d="M15.7968 5.82059C14.6694 5.81859 13.5562 6.07158 12.5404 6.56062C11.7679 6.90703 11.0628 7.38737 10.4577 7.97944C9.74058 8.67585 9.31027 9.65242 8.9214 10.5733C8.53254 11.4942 8.13264 12.484 8.13358 13.4837L8.13356 17.8866L8.13359 17.8889C8.14069 18.5037 7.98309 19.1092 7.67715 19.6425C7.37175 20.1749 6.92966 20.616 6.39663 20.9202C6.12673 21.0626 5.90889 21.287 5.77444 21.5611C5.63947 21.8362 5.59554 22.1472 5.64902 22.4489L5.65031 22.4562L5.65213 22.4633C5.74062 22.8113 5.94671 23.1179 6.23547 23.3312C6.52285 23.5435 6.87452 23.6504 7.23134 23.634H24.3751C24.7319 23.6466 25.0821 23.5361 25.3671 23.3211C25.6532 23.1052 25.856 22.7972 25.9412 22.4492L25.943 22.442L25.9442 22.4347C25.9944 22.1351 25.9489 21.8274 25.8141 21.5552C25.6798 21.284 25.4637 21.062 25.1965 20.9203C24.6633 20.6161 24.2212 20.175 23.9157 19.6425C23.6098 19.1092 23.4522 18.5037 23.4593 17.8889V17.8866V13.8444C23.4648 12.3458 23.0555 10.8749 22.2769 9.59444C21.4982 8.31384 20.3804 7.27363 19.0471 6.58896L19.0454 6.58813C18.1105 6.1189 17.0852 5.85701 16.0397 5.82059H16.0328H15.7968ZM15.7968 5.82059L15.7965 6.02059M7.22658 25.7216H7.22162C6.3606 25.743 5.51984 25.4587 4.84855 24.919C4.1781 24.3801 3.71999 23.6213 3.55528 22.7771C3.43855 22.049 3.55262 21.3027 3.88155 20.6427C4.21095 19.9818 4.73924 19.4408 5.39213 19.0957L5.40388 19.089C5.60872 18.9623 5.77614 18.7834 5.88895 18.5706C6.00108 18.3591 6.05523 18.1217 6.04596 17.8825V13.4841C6.05515 12.1768 6.32988 10.8849 6.85346 9.68697C7.37714 8.48879 8.13885 7.40953 9.09235 6.51469L9.09474 6.51241C10.0102 5.62437 11.091 4.92456 12.2758 4.45262L12.3821 4.41031L12.3995 4.29728C12.528 3.46374 12.9505 2.70369 13.5907 2.15461C14.2308 1.60554 15.0464 1.30371 15.8897 1.30371C16.7331 1.30371 17.5487 1.60554 18.1888 2.15461C18.829 2.70369 19.2515 3.46374 19.38 4.29728L19.3967 4.40562L19.497 4.44983C21.3174 5.25225 22.8642 6.56841 23.9477 8.23696C25.0312 9.90551 25.6043 11.854 25.5967 13.8434V17.8825C25.5874 18.1217 25.6416 18.3591 25.7537 18.5706C25.8665 18.7834 26.0339 18.9623 26.2388 19.089L26.2481 19.0944C26.8923 19.4464 27.4108 19.9904 27.7314 20.6508C28.0517 21.3103 28.1588 22.0533 28.0377 22.7764C27.8731 23.6209 27.415 24.3799 26.7443 24.919C26.0731 25.4587 25.2323 25.743 24.3713 25.7216H24.3663H20.7717H20.5717V25.9216C20.5717 27.188 20.0686 28.4026 19.1731 29.2982C18.2775 30.1937 17.0629 30.6968 15.7965 30.6968C14.53 30.6968 13.3154 30.1937 12.4198 29.2982C11.5243 28.4026 11.0212 27.188 11.0212 25.9216V25.7216H10.8212H7.22658ZM13.3088 25.7216H13.1088V25.9216C13.1088 26.6344 13.392 27.318 13.896 27.822C14.4 28.326 15.0837 28.6092 15.7965 28.6092C16.5093 28.6092 17.1929 28.326 17.6969 27.822C18.2009 27.318 18.4841 26.6344 18.4841 25.9216V25.7216H18.2841H13.3088Z" stroke="white" stroke-width="0.4"/>
</svg>
