<svg width="32" height="32" viewBox="0 0 32 32" fill="none" xmlns="http://www.w3.org/2000/svg">
<path d="M16.0001 16.9001C11.6443 16.9001 8.1001 13.3559 8.1001 9.0001C8.1001 4.64433 11.6443 1.1001 16.0001 1.1001C20.3559 1.1001 23.9001 4.64433 23.9001 9.0001C23.9001 13.3559 20.3559 16.9001 16.0001 16.9001ZM16.0001 2.9001C12.6359 2.9001 9.9001 5.63587 9.9001 9.0001C9.9001 12.3643 12.6359 15.1001 16.0001 15.1001C19.3643 15.1001 22.1001 12.3643 22.1001 9.0001C22.1001 5.63587 19.3643 2.9001 16.0001 2.9001Z" fill="#008D3E" stroke="white" stroke-width="0.2"/>
<path d="M14.9291 10.799L14.9292 10.7993C15.0168 11.0947 15.2927 11.3009 15.6001 11.3009H16.4001C16.7863 11.3009 17.1001 10.9871 17.1001 10.6009C17.1001 10.2149 16.7865 9.8999 16.4001 9.8999H15.6001C14.2214 9.8999 13.1001 8.7777 13.1001 7.3999C13.1001 6.02211 14.2214 4.8999 15.6001 4.8999H16.4001C17.478 4.8999 18.4298 5.58632 18.7712 6.60955V6.60958C18.9287 7.08113 18.6741 7.59053 18.2024 7.74805V7.74807C17.7264 7.90732 17.2218 7.65048 17.064 7.1794C16.9694 6.89234 16.702 6.6999 16.4001 6.6999H15.6001C15.2139 6.6999 14.9001 7.01368 14.9001 7.3999C14.9001 7.78613 15.2139 8.0999 15.6001 8.0999H16.4001C17.7788 8.0999 18.9001 9.22211 18.9001 10.5999C18.9001 11.9777 17.7788 13.0999 16.4001 13.0999H15.6001C14.4994 13.0999 13.5135 12.3621 13.203 11.3077C13.0626 10.8306 13.3344 10.3304 13.8121 10.1899C14.2908 10.0521 14.7898 10.3237 14.9291 10.799Z" fill="#008D3E" stroke="white" stroke-width="0.2"/>
<path fill-rule="evenodd" clip-rule="evenodd" d="M2.9001 21.3933L2.93507 21.3633C3.2653 21.0806 3.74855 20.7164 4.28839 20.4224C4.82646 20.1292 5.43067 19.9003 6.0001 19.9003C6.71757 19.9003 7.6551 20.2401 8.49827 20.635C9.34529 21.0317 10.1139 21.4924 10.5003 21.7499C10.6481 21.8472 10.823 21.9003 11.0001 21.9003H16.0001C16.6074 21.9003 17.1001 22.3941 17.1001 23.0003C17.1001 23.6065 16.6074 24.1003 16.0001 24.1003H10.0001C9.50239 24.1003 9.1001 24.5035 9.1001 25.0003C9.1001 25.4971 9.50239 25.9003 10.0001 25.9003H18.0001L18.0213 25.9001L18.3476 25.831L27.5776 21.985C27.9206 21.8411 28.3003 21.8779 28.611 22.0854C28.7551 22.1825 28.8729 22.3077 28.9559 22.4526L29.0052 22.5387L28.9195 22.5887L17.7795 29.0867L17.7561 29.1003H17.7291H3.0001H2.9001V29.0003V21.4393V21.3933ZM15.2595 5.50557L15.2548 5.4961L15.2482 5.48783C15.217 5.44878 15.192 5.39982 15.175 5.34867L15.1727 5.34193L15.1695 5.33557C15.144 5.2845 15.1272 5.23429 15.1179 5.18476L15.114 5.15539L15.1133 5.14994C15.1059 5.09471 15.1001 5.05108 15.1001 5.0003C15.1001 4.76775 15.1979 4.5325 15.3617 4.36016C15.6918 4.03103 16.2972 4.02952 16.6389 4.36053C16.8017 4.53309 16.9001 4.76823 16.9001 5.0003C16.9001 5.05828 16.8923 5.10833 16.8819 5.17504L16.8815 5.17745L16.8805 5.18385C16.8721 5.23383 16.8562 5.28416 16.8303 5.33439L16.8294 5.33394L16.8247 5.34726C16.8061 5.4005 16.7818 5.44938 16.751 5.48783L16.7459 5.49483C16.71 5.54872 16.6739 5.59418 16.6353 5.64241C16.4642 5.8031 16.2307 5.9003 16.0001 5.9003C15.759 5.9003 15.535 5.80338 15.3637 5.64228C15.354 5.63032 15.3441 5.61864 15.3348 5.60779L15.3339 5.60676L15.3316 5.60406C15.3219 5.5926 15.3128 5.58193 15.3041 5.57113C15.2846 5.5471 15.2698 5.52611 15.2595 5.50557ZM15.2595 13.5056L15.2548 13.4961L15.2482 13.4878C15.217 13.4488 15.192 13.3998 15.175 13.3487L15.1727 13.3419L15.1695 13.3356C15.144 13.2845 15.1272 13.2343 15.1179 13.1848C15.1164 13.1726 15.1148 13.161 15.1133 13.1499C15.1059 13.0947 15.1001 13.0511 15.1001 13.0003C15.1001 12.7678 15.1979 12.5325 15.3617 12.3602C15.6918 12.031 16.2972 12.0295 16.6389 12.3605C16.8017 12.5331 16.9001 12.7682 16.9001 13.0003C16.9001 13.0583 16.8923 13.1082 16.8819 13.1749L16.8815 13.1774L16.8805 13.1839C16.8721 13.2339 16.8562 13.2841 16.8303 13.3344L16.8294 13.3339L16.8247 13.3473C16.8061 13.4005 16.7818 13.4494 16.751 13.4878L16.7459 13.4948C16.71 13.5487 16.6739 13.5942 16.6353 13.6424C16.4642 13.8031 16.2307 13.9003 16.0001 13.9003C15.759 13.9003 15.535 13.8034 15.3637 13.6423C15.354 13.6303 15.3441 13.6186 15.3348 13.6078L15.3338 13.6066C15.3232 13.5942 15.3135 13.5827 15.3041 13.5711C15.2846 13.5471 15.2698 13.5261 15.2595 13.5056ZM1.1001 21.0003C1.1001 20.7617 1.19467 20.5322 1.36362 20.3642C1.47768 20.2496 2.06223 19.6815 2.90794 19.143C3.75517 18.6035 4.85416 18.1003 6.0001 18.1003C6.95073 18.1003 8.04814 18.4606 9.01985 18.8925C9.98921 19.3235 10.8225 19.8208 11.2418 20.0849L11.2662 20.1003H11.2951H16.0001C17.5989 20.1003 18.9001 21.4015 18.9001 23.0003C18.9001 23.1712 18.8847 23.3386 18.8565 23.5024L18.8258 23.6815L18.9936 23.6116L26.8846 20.3236C27.7816 19.9495 28.7994 20.049 29.6087 20.5875C30.4178 21.127 30.9001 22.0288 30.9001 23.0003C30.9001 23.32 30.7308 23.6169 30.4539 23.7778L18.4538 30.7779C18.3161 30.858 18.1594 30.9003 18.0001 30.9003H2.0001C1.50239 30.9003 1.1001 30.4971 1.1001 30.0003V21.0003Z" fill="#008D3E"/>
<path d="M2.9001 29.1003V29.0003V21.4393V21.3933L2.93507 21.3633C3.2653 21.0806 3.74855 20.7164 4.28839 20.4224C4.82646 20.1292 5.43067 19.9003 6.0001 19.9003C6.71757 19.9003 7.6551 20.2401 8.49827 20.635C9.34529 21.0317 10.1139 21.4924 10.5003 21.7499C10.6481 21.8472 10.823 21.9003 11.0001 21.9003H16.0001C16.6074 21.9003 17.1001 22.3941 17.1001 23.0003C17.1001 23.6065 16.6074 24.1003 16.0001 24.1003H10.0001C9.50239 24.1003 9.1001 24.5035 9.1001 25.0003C9.1001 25.4971 9.50239 25.9003 10.0001 25.9003H18.0001M2.9001 29.1003H3.0001M2.9001 29.1003L18.0213 25.9001M18.0001 25.9003L18.0213 25.9001M18.0001 25.9003C18.0072 25.9003 18.0143 25.9002 18.0213 25.9001M18.3476 25.831L27.5776 21.985M18.3476 25.831C18.2434 25.8742 18.1329 25.8974 18.0213 25.9001M18.3476 25.831L18.0213 25.9001M3.0001 29.1003H17.7291H17.7561M3.0001 29.1003H17.7561M17.7561 29.1003L17.7795 29.0867M17.7795 29.0867L28.9195 22.5887L29.0052 22.5387M17.7795 29.0867L29.0052 22.5387M29.0052 22.5387L28.9559 22.4526M28.9559 22.4526C28.8729 22.3077 28.7551 22.1825 28.611 22.0854M28.9559 22.4526L28.611 22.0854M28.611 22.0854C28.3003 21.8779 27.9206 21.8411 27.5776 21.985M28.611 22.0854L27.5776 21.985M15.1179 5.18476C15.1272 5.23429 15.144 5.2845 15.1695 5.33557L15.1727 5.34193L15.175 5.34867C15.192 5.39982 15.217 5.44878 15.2482 5.48783L15.2548 5.4961L15.2595 5.50557C15.2698 5.52611 15.2846 5.5471 15.3041 5.57113C15.3128 5.58193 15.3219 5.5926 15.3316 5.60406M15.1179 5.18476C15.1166 5.17457 15.1153 5.16481 15.114 5.15539M15.1179 5.18476L15.114 5.15539M15.1133 5.14994C15.1059 5.09471 15.1001 5.05108 15.1001 5.0003C15.1001 4.76775 15.1979 4.5325 15.3617 4.36016C15.6918 4.03103 16.2972 4.02952 16.6389 4.36053C16.8017 4.53309 16.9001 4.76823 16.9001 5.0003C16.9001 5.05828 16.8923 5.10833 16.8819 5.17504L16.8815 5.17745L16.8805 5.18385M15.1133 5.14994L15.114 5.15539M15.1133 5.14994C15.1135 5.15174 15.1138 5.15356 15.114 5.15539M16.8805 5.18385C16.8804 5.18401 16.8805 5.18369 16.8805 5.18385ZM16.8805 5.18385C16.8721 5.23383 16.8562 5.28416 16.8303 5.33439L16.8294 5.33394L16.8247 5.34726C16.8061 5.4005 16.7818 5.44938 16.751 5.48783L16.7459 5.49483C16.71 5.54872 16.6739 5.59418 16.6353 5.64241C16.4642 5.8031 16.2307 5.9003 16.0001 5.9003C15.759 5.9003 15.535 5.80338 15.3637 5.64228C15.354 5.63032 15.3441 5.61864 15.3348 5.60779L15.3339 5.60676M15.3339 5.60676L15.3316 5.60406M15.3339 5.60676C15.3331 5.60586 15.3324 5.60496 15.3316 5.60406M16.8805 13.1839L16.8815 13.1774L16.8819 13.1749C16.8923 13.1082 16.9001 13.0583 16.9001 13.0003C16.9001 12.7682 16.8017 12.5331 16.6389 12.3605C16.2972 12.0295 15.6918 12.031 15.3617 12.3602C15.1979 12.5325 15.1001 12.7678 15.1001 13.0003C15.1001 13.0511 15.1059 13.0947 15.1133 13.1499C15.1148 13.161 15.1164 13.1726 15.1179 13.1848C15.1272 13.2343 15.144 13.2845 15.1695 13.3356L15.1727 13.3419L15.175 13.3487C15.192 13.3998 15.217 13.4488 15.2482 13.4878L15.2548 13.4961L15.2595 13.5056C15.2698 13.5261 15.2846 13.5471 15.3041 13.5711C15.3135 13.5827 15.3232 13.5942 15.3338 13.6066L15.3348 13.6078C15.3441 13.6186 15.354 13.6303 15.3637 13.6423C15.535 13.8034 15.759 13.9003 16.0001 13.9003C16.2307 13.9003 16.4642 13.8031 16.6353 13.6424C16.6739 13.5942 16.71 13.5487 16.7459 13.4948L16.751 13.4878C16.7818 13.4494 16.8061 13.4005 16.8247 13.3473L16.8294 13.3339L16.8303 13.3344C16.8562 13.2841 16.8721 13.2339 16.8805 13.1839ZM16.8805 13.1839C16.8804 13.184 16.8805 13.1838 16.8805 13.1839ZM1.36362 20.3642C1.47768 20.2496 2.06223 19.6815 2.90794 19.143C3.75517 18.6035 4.85416 18.1003 6.0001 18.1003C6.95073 18.1003 8.04814 18.4606 9.01985 18.8925C9.98921 19.3235 10.8225 19.8208 11.2418 20.0849L11.2662 20.1003H11.2951H16.0001C17.5989 20.1003 18.9001 21.4015 18.9001 23.0003C18.9001 23.1712 18.8847 23.3386 18.8565 23.5024L18.8258 23.6815L18.9936 23.6116L26.8846 20.3236C27.7816 19.9495 28.7994 20.049 29.6087 20.5875C30.4178 21.127 30.9001 22.0288 30.9001 23.0003C30.9001 23.32 30.7308 23.6169 30.4539 23.7778L18.4538 30.7779C18.3161 30.858 18.1594 30.9003 18.0001 30.9003H2.0001C1.50239 30.9003 1.1001 30.4971 1.1001 30.0003V21.0003C1.1001 20.7617 1.19467 20.5322 1.36362 20.3642Z" stroke="white" stroke-width="0.2"/>
</svg>
