<svg width="102" height="11" viewBox="0 0 102 11" fill="none" xmlns="http://www.w3.org/2000/svg">
<path d="M1 10.5C1.15545 10.9752 1.15545 10.9752 1.15545 10.9752C1.15545 10.9752 1.15546 10.9752 1.15547 10.9752C1.15549 10.9752 1.15552 10.9752 1.15558 10.9752C1.15569 10.9751 1.15586 10.9751 1.15611 10.975C1.15659 10.9748 1.15735 10.9746 1.15837 10.9743C1.16041 10.9736 1.16353 10.9726 1.1677 10.9712C1.17605 10.9685 1.18864 10.9644 1.2054 10.959C1.23894 10.9481 1.28917 10.9319 1.35558 10.9105C1.48838 10.8679 1.68585 10.8049 1.94368 10.7237C2.45934 10.5613 3.21643 10.3263 4.18056 10.0363L3.89248 9.0787C2.92397 9.37006 2.1628 9.60631 1.64336 9.76986C1.38364 9.85163 1.18435 9.91523 1.04978 9.95845C0.982497 9.98006 0.931394 9.99657 0.897009 10.0077C0.879817 10.0133 0.866804 10.0175 0.858038 10.0204C0.853655 10.0218 0.850333 10.0229 0.848082 10.0236C0.846956 10.024 0.846098 10.0243 0.845508 10.0245C0.845213 10.0246 0.844986 10.0246 0.844825 10.0247C0.844745 10.0247 0.844682 10.0247 0.844635 10.0248C0.844612 10.0248 0.84459 10.0248 0.844578 10.0248C0.84456 10.0248 0.844546 10.0248 1 10.5ZM10.3066 8.28003C12.1642 7.77194 14.2418 7.22514 16.4791 6.67036L16.2385 5.69976C13.9925 6.25665 11.9072 6.8055 10.0427 7.31546L10.3066 8.28003ZM22.6768 5.21687C24.6962 4.77131 26.7869 4.33846 28.9162 3.93506L28.73 2.95254C26.59 3.35799 24.4894 3.79289 22.4614 4.24036L22.6768 5.21687ZM35.1914 2.85956C37.2986 2.5391 39.4114 2.26172 41.5 2.04259L41.3957 1.04805C39.2897 1.269 37.1615 1.54845 35.0411 1.87092L35.1914 2.85956ZM47.8349 1.56786C48.9075 1.52338 49.9641 1.5 51 1.5V0.5C49.9491 0.5 48.8787 0.523714 47.7935 0.568724L47.8349 1.56786ZM51 1.5C52.0359 1.5 53.0925 1.52338 54.1651 1.56786L54.2065 0.568724C53.1213 0.523714 52.0509 0.5 51 0.5V1.5ZM60.5 2.04259C62.5886 2.26172 64.7014 2.5391 66.8086 2.85955L66.9589 1.87092C64.8385 1.54845 62.7103 1.269 60.6043 1.04805L60.5 2.04259ZM73.0838 3.93506C75.2131 4.33846 77.3038 4.77131 79.3232 5.21687L79.5386 4.24036C77.5106 3.79288 75.41 3.35799 73.27 2.95254L73.0838 3.93506ZM85.5209 6.67036C87.7582 7.22514 89.8358 7.77194 91.6934 8.28003L91.9573 7.31546C90.0928 6.8055 88.0075 6.25665 85.7615 5.69975L85.5209 6.67036ZM97.8194 10.0363C98.7836 10.3263 99.5407 10.5613 100.056 10.7237C100.314 10.8049 100.512 10.8679 100.644 10.9105C100.711 10.9319 100.761 10.9481 100.795 10.959C100.811 10.9644 100.824 10.9685 100.832 10.9712C100.836 10.9726 100.84 10.9736 100.842 10.9743C100.843 10.9746 100.843 10.9748 100.844 10.975C100.844 10.9751 100.844 10.9751 100.844 10.9752C100.844 10.9752 100.845 10.9752 100.845 10.9752C100.845 10.9752 100.845 10.9752 100.845 10.9752C100.845 10.9752 100.845 10.9752 101 10.5C101.155 10.0248 101.155 10.0248 101.155 10.0248C101.155 10.0248 101.155 10.0248 101.155 10.0248C101.155 10.0247 101.155 10.0247 101.155 10.0247C101.155 10.0246 101.155 10.0246 101.154 10.0245C101.154 10.0243 101.153 10.024 101.152 10.0236C101.15 10.0229 101.146 10.0218 101.142 10.0204C101.133 10.0175 101.12 10.0133 101.103 10.0077C101.069 9.99657 101.018 9.98006 100.95 9.95845C100.816 9.91523 100.616 9.85163 100.357 9.76985C99.8372 9.60631 99.076 9.37006 98.1075 9.0787L97.8194 10.0363Z" fill="#A6A6A6"/>
</svg>
