<svg width="32" height="33" viewBox="0 0 32 33" fill="none" xmlns="http://www.w3.org/2000/svg">
<g clip-path="url(#clip0_155_2627)">
<path d="M17.3657 2.23921L17.3627 2.23696L17.3537 2.23201C16.4981 1.76225 15.5305 1.74909 14.6271 2.24101L14.6271 2.24093L14.6228 2.24347L1.58275 9.91705L1.58194 9.91753C1.33602 10.0643 1.1835 10.3281 1.1835 10.6156V13.2571C1.1835 13.7066 1.55145 14.0648 2.00016 14.0648H3.85016V25.6555C2.36735 25.733 1.1835 26.9521 1.1835 28.4431V30.4243C1.1835 30.873 1.55066 31.2346 2.00016 31.2346H30.0002C30.4497 31.2346 30.8168 30.873 30.8168 30.4243V28.4431C30.8168 26.9521 29.633 25.733 28.1502 25.6555V14.0648H30.0002C30.4491 14.0648 30.8168 13.7064 30.8168 13.2558V10.6143C30.8168 10.3284 30.6644 10.0627 30.4162 9.91704L17.3657 2.23921ZM17.3657 2.23921L17.3713 2.24236C17.3734 2.24366 17.3762 2.24532 17.3792 2.24733L30.416 9.91694L17.3657 2.23921ZM13.1835 25.6516H9.4835V14.0648H13.1835V25.6516ZM22.5168 25.6516H18.8168V14.0648H22.5168V25.6516Z" fill="#008D3E" stroke="#008D3E" stroke-width="0.3"/>
<path d="M2.6665 10.9892L15.3612 3.51901C15.7772 3.29316 16.2185 3.29316 16.6278 3.51504L29.3332 10.9892V12.5939H2.6665V10.9892Z" fill="white"/>
<path d="M16.6652 3.5347L16.6278 3.51357C16.2172 3.293 15.7758 3.29168 15.3612 3.51753L2.6665 10.989V12.5938H3.99984V10.989L16.6652 3.5347Z" fill="white"/>
<path d="M17.3332 13.915H14.6665V25.8018H17.3332V13.915Z" fill="white"/>
<path d="M8.00016 13.915H5.3335V25.8018H8.00016V13.915Z" fill="white"/>
<path d="M29.3332 28.4433V29.7641H2.6665V28.4433C2.6665 27.7156 3.26517 27.1226 3.99984 27.1226H4.6665H27.3332H27.9998C28.7345 27.1226 29.3332 27.7156 29.3332 28.4433Z" fill="white"/>
<path d="M27.9998 27.1226H27.3332H4.6665H3.99984C3.26517 27.1226 2.6665 27.7156 2.6665 28.4433V29.0799C2.6665 28.3522 3.26517 27.7592 3.99984 27.7592H4.6665H27.3332H27.9998C28.7345 27.7592 29.3332 28.3522 29.3332 29.0799V28.4433C29.3332 27.7156 28.7345 27.1226 27.9998 27.1226Z" fill="white"/>
<path d="M26.6667 13.915H24V25.8018H26.6667V13.915Z" fill="white"/>
<path d="M14.6668 20.5188L17.3335 23.1603V13.915H14.6668V20.5188ZM8.00016 16.5565V13.915H5.3335L8.00016 16.5565ZM24.0002 13.915V25.8018H26.6668V13.915H24.0002Z" fill="white"/>
<path d="M15.9986 11.2744C17.4721 11.2744 18.6666 10.0912 18.6666 8.6316C18.6666 7.172 17.4721 5.98877 15.9986 5.98877C14.5251 5.98877 13.3306 7.172 13.3306 8.6316C13.3306 10.0912 14.5251 11.2744 15.9986 11.2744Z" fill="#008D3E"/>
<path d="M15.9987 9.95372C16.7358 9.95372 17.3334 9.36181 17.3334 8.63165C17.3334 7.90148 16.7358 7.30957 15.9987 7.30957C15.2616 7.30957 14.6641 7.90148 14.6641 8.63165C14.6641 9.36181 15.2616 9.95372 15.9987 9.95372Z" fill="white"/>
<path d="M30.0002 15.2361C30.3682 15.2361 30.6668 14.9429 30.6668 14.5771V11.9355C30.6668 11.7031 30.5428 11.4865 30.3402 11.3676L17.2988 3.69535C17.2935 3.69139 17.2868 3.68875 17.2815 3.68479C16.4708 3.23969 15.5575 3.22649 14.6988 3.69403L1.65883 11.3676C1.4575 11.4878 1.3335 11.7031 1.3335 11.9369V14.5784C1.3335 14.9429 1.63216 15.2361 2.00016 15.2361H4.00016V27.1229C2.5295 27.1229 1.3335 28.3076 1.3335 29.7644V31.7456C1.3335 32.1101 1.63216 32.4059 2.00016 32.4059H30.0002C30.3682 32.4059 30.6668 32.1101 30.6668 31.7456V29.7644C30.6668 28.3076 29.4708 27.1229 28.0002 27.1229V15.2361H30.0002ZM13.3335 27.1229H9.3335V15.2361H13.3335V27.1229ZM22.6668 27.1229H18.6668V15.2361H22.6668V27.1229Z" fill="url(#paint0_linear_155_2627)"/>
</g>
<defs>
<linearGradient id="paint0_linear_155_2627" x1="0.386829" y1="13.8018" x2="32.1449" y2="28.7522" gradientUnits="userSpaceOnUse">
<stop stop-color="white" stop-opacity="0.2"/>
<stop offset="1" stop-color="white" stop-opacity="0"/>
</linearGradient>
<clipPath id="clip0_155_2627">
<rect width="32" height="31.6981" fill="white" transform="translate(0 0.70752)"/>
</clipPath>
</defs>
</svg>
