<svg width="28" height="28" viewBox="0 0 28 28" fill="#D7FFD2" xmlns="http://www.w3.org/2000/svg">
<path d="M2.4499 16.1C3.0298 16.1 3.4999 15.6299 3.4999 15.05C3.4999 14.4701 3.0298 14 2.4499 14C1.87 14 1.3999 14.4701 1.3999 15.05C1.3999 15.6299 1.87 16.1 2.4499 16.1Z" fill="#D7FFD2"/>
<path d="M25.284 14H8.316C7.58919 14 7 14.4419 7 14.987V15.113C7 15.6581 7.58919 16.1 8.316 16.1H25.284C26.0108 16.1 26.6 15.6581 26.6 15.113V14.987C26.6 14.4419 26.0108 14 25.284 14Z" fill="#D7FFD2"/>
<path d="M25.2839 21H2.7159C1.9891 21 1.3999 21.4419 1.3999 21.987V22.113C1.3999 22.6581 1.9891 23.1 2.7159 23.1H25.2839C26.0107 23.1 26.5999 22.6581 26.5999 22.113V21.987C26.5999 21.4419 26.0107 21 25.2839 21Z" fill="#D7FFD2"/>
<path d="M25.2839 7L2.7159 7C1.9891 7 1.3999 7.44189 1.3999 7.987V8.113C1.3999 8.6581 1.9891 9.1 2.7159 9.1L25.2839 9.1C26.0107 9.1 26.5999 8.6581 26.5999 8.113V7.987C26.5999 7.44189 26.0107 7 25.2839 7Z" fill="#D7FFD2"/>
</svg>
