<svg width="20" height="20" viewBox="0 0 20 20" fill="none" xmlns="http://www.w3.org/2000/svg">
<path d="M10.0002 19.8002C15.4126 19.8002 19.8002 15.4126 19.8002 10.0002C19.8002 4.5878 15.4126 0.200195 10.0002 0.200195C4.5878 0.200195 0.200195 4.5878 0.200195 10.0002C0.200195 15.4126 4.5878 19.8002 10.0002 19.8002Z" fill="#669073"/>
<path d="M10.0809 17.8851L6.83613 12.4933L9.87172 14.5897C9.97372 14.6599 10.1081 14.6605 10.2103 14.5913L13.3457 12.4683L10.0809 17.8851ZM10.0245 2.16406L13.3679 8.44886L10.1765 6.75206C10.1325 6.72866 10.0841 6.71686 10.0357 6.71686C9.98972 6.71686 9.94332 6.72746 9.90092 6.74886L6.57812 8.41866L10.0245 2.16406Z" fill="white"/>
<path d="M10.0511 8.3833L13.7087 10.3249L10.0545 12.7615L6.2915 10.2701L10.0511 8.3833Z" fill="white"/>
</svg>
