<svg width="32" height="32" viewBox="0 0 32 32" fill="none" xmlns="http://www.w3.org/2000/svg">
<path d="M3.2002 24V16C3.2002 12.8174 4.54349 9.76516 6.93458 7.51472C9.32567 5.26428 12.5687 4 15.9502 4C19.3317 4 22.5747 5.26428 24.9658 7.51472C27.3569 9.76516 28.7002 12.8174 28.7002 16V24" stroke="#008D3E" stroke-width="2" stroke-linecap="round" stroke-linejoin="round"/>
<path d="M29 18.6665C29 18.1142 28.5523 17.6665 28 17.6665H24C23.0275 17.6665 22.0949 18.0528 21.4073 18.7404C20.7196 19.4281 20.3333 20.3607 20.3333 21.3332V25.3332C20.3333 26.3056 20.7196 27.2383 21.4073 27.9259C22.0949 28.6135 23.0275 28.9998 24 28.9998H25.3333C26.3058 28.9998 27.2384 28.6135 27.9261 27.9259C28.6137 27.2383 29 26.3056 29 25.3332V18.6665ZM4 17.6665C3.44772 17.6665 3 18.1142 3 18.6665V25.3332C3 26.3056 3.38631 27.2383 4.07394 27.9259C4.76157 28.6135 5.69421 28.9998 6.66667 28.9998H8C8.97246 28.9998 9.90509 28.6135 10.5927 27.9259C11.2804 27.2383 11.6667 26.3056 11.6667 25.3332V21.3332C11.6667 20.3607 11.2804 19.4281 10.5927 18.7404C9.90509 18.0528 8.97246 17.6665 8 17.6665H4Z" stroke="#008D3E" stroke-width="2" stroke-linecap="round" stroke-linejoin="round"/>
</svg>
