<svg width="32" height="32" viewBox="0 0 32 32" fill="none" xmlns="http://www.w3.org/2000/svg">
<path d="M9.91724 2.8H9.91722C9.73986 2.80002 9.56978 2.87048 9.44437 2.99589C9.31897 3.12129 9.2485 3.29138 9.24849 3.46873V3.46875V8.44514H1.46875H1.46873C1.29138 8.44516 1.12129 8.51562 0.995886 8.64103C0.870479 8.76644 0.800018 8.93652 0.8 9.11387V9.11389V18.0201V18.9576V24.5826C0.8 26.7625 2.57014 28.5326 4.75 28.5326H27.25C29.4299 28.5326 31.2 26.7625 31.2 24.5826V9.11389C31.2 8.93652 31.1295 8.76644 31.0041 8.64103C30.8787 8.51562 30.7086 8.44516 30.5313 8.44514H22.7387V3.46875C22.7387 3.29138 22.6682 3.12129 22.5428 2.99589C22.4174 2.87048 22.2473 2.80002 22.07 2.8H9.91724ZM13.925 17.5514V17.8201H11.0378H2.1375V9.78264H29.8625V17.8201H20.8853H18.075V17.5514C18.075 17.374 18.0045 17.2039 17.8791 17.0785C17.7537 16.9531 17.5836 16.8827 17.4063 16.8826H14.5938H14.5937C14.4164 16.8827 14.2463 16.9531 14.1209 17.0785C13.9955 17.2039 13.925 17.374 13.925 17.5514V17.5514ZM10.586 8.44514V4.1375H21.4012V8.44514H20.7076H19.7701H12.2665H11.329H10.586ZM15.2625 19.6951V18.2201H16.7375V19.6951H15.2625ZM2.1375 24.5826V19.1576H11.0378H13.925V20.3639C13.925 20.5413 13.9955 20.7113 14.1209 20.8368C14.2463 20.9622 14.4164 21.0326 14.5937 21.0326H17.4062C17.5836 21.0326 17.7537 20.9622 17.8791 20.8368C18.0045 20.7113 18.075 20.5413 18.075 20.3639V19.1576H20.8853H29.8625V24.5826C29.8625 26.0385 28.7058 27.1951 27.25 27.1951H4.75C3.29421 27.1951 2.1375 26.0385 2.1375 24.5826Z" fill="#008D3E" stroke="#008D3E" stroke-width="0.4"/>
</svg>
