<svg width="32" height="32" viewBox="0 0 32 32" fill="none" xmlns="http://www.w3.org/2000/svg">
<path d="M16.1139 17.5928C14.4641 17.5928 13.1211 18.9392 13.1211 20.5941C13.1211 21.9388 14.0186 23.0657 15.2414 23.4419V25.7861H16.9966V23.4375C18.2183 23.0559 19.1152 21.9299 19.1152 20.5941C19.1152 18.9392 17.7688 17.5928 16.1139 17.5928ZM16.1156 21.8317C16.1145 21.8317 16.1149 21.8317 16.1139 21.8317C15.4317 21.8317 14.8763 21.2763 14.8763 20.5941C14.8763 19.9072 15.4317 19.348 16.1139 19.348C16.8012 19.348 17.36 19.9072 17.36 20.5941C17.36 21.2828 16.8132 21.8265 16.1156 21.8317Z" fill="#008D3E"/>
<path d="M23.398 12.3271V8.68514C23.398 4.43191 19.9427 1.03223 15.7276 1.03223C11.4218 1.03223 8.0742 4.52824 8.0742 8.68514V12.3271H7.70568C6.30271 12.3271 5.16113 13.4687 5.16113 14.8721V28.4223C5.16113 29.8257 6.30271 30.9677 7.70568 30.9677H23.7666C25.1653 30.9677 26.3026 29.8257 26.3026 28.4223V14.8721C26.3026 13.4687 25.1653 12.3271 23.7666 12.3271H23.398ZM18.2284 12.3271H13.2439V8.68514C13.2439 5.39797 18.2284 5.45516 18.2284 8.68514V12.3271ZM9.82942 8.68514C9.82942 5.54726 12.3526 2.78743 15.7361 2.78743C18.9919 2.78743 21.6428 5.42453 21.6428 8.68514V12.3271H19.9836V8.68514C19.9836 6.3051 18.0344 4.44623 15.7276 4.44623C13.3888 4.44623 11.4886 6.34852 11.4886 8.68514V12.3271H9.82942V8.68514ZM24.5473 14.8721V28.4223C24.5473 28.8654 24.2045 29.2125 23.7666 29.2125H7.70568C7.2703 29.2125 6.91635 28.8581 6.91635 28.4223V14.8721C6.91635 14.4367 7.27031 14.0823 7.70568 14.0823C7.85225 14.0824 17.8941 14.0889 23.7666 14.0823C24.1968 14.0823 24.5473 14.4367 24.5473 14.8721Z" fill="#008D3E"/>
</svg>
