<svg width="28" height="20" viewBox="0 0 28 20" fill="none" xmlns="http://www.w3.org/2000/svg">
<path d="M3 0.125H25C25.7625 0.125 26.4938 0.427901 27.0329 0.967068C27.5721 1.50624 27.875 2.2375 27.875 3V17C27.875 17.7625 27.5721 18.4938 27.0329 19.0329C26.4938 19.5721 25.7625 19.875 25 19.875H3C2.2375 19.875 1.50624 19.5721 0.967068 19.0329C0.427901 18.4938 0.125 17.7625 0.125 17V3C0.125 2.2375 0.427901 1.50624 0.967068 0.967068C1.50624 0.427901 2.2375 0.125 3 0.125ZM25.7955 17.7955C26.0065 17.5845 26.125 17.2984 26.125 17V3C26.125 2.70163 26.0065 2.41548 25.7955 2.20451C25.5845 1.99353 25.2984 1.875 25 1.875H3C2.70163 1.875 2.41548 1.99353 2.2045 2.2045C1.99353 2.41548 1.875 2.70163 1.875 3V17C1.875 17.2984 1.99353 17.5845 2.20451 17.7955C2.41548 18.0065 2.70163 18.125 3 18.125H25C25.2984 18.125 25.5845 18.0065 25.7955 17.7955Z" fill="#008D3E" stroke="white" stroke-width="0.25"/>
<path d="M11.007 9.73645L10.9159 9.83789L11.0248 9.91982C12.0333 10.6786 12.875 12.1545 12.875 14.9999C12.875 15.232 12.7828 15.4546 12.6187 15.6187C12.4546 15.7828 12.2321 15.8749 12 15.8749H5C4.76794 15.8749 4.54538 15.7828 4.38128 15.6187C4.21719 15.4546 4.125 15.232 4.125 14.9999C4.125 12.1546 4.96666 10.6783 5.96561 9.91948L6.07363 9.83742L5.98304 9.73645C5.5476 9.2512 5.26205 8.6502 5.16088 8.00612C5.05971 7.36204 5.14726 6.70244 5.41296 6.10706C5.67865 5.51167 6.1111 5.00599 6.65805 4.65113C7.205 4.29627 7.84302 4.10742 8.495 4.10742C9.14698 4.10742 9.785 4.29627 10.3319 4.65113C10.8789 5.00599 11.3114 5.51167 11.577 6.10706C11.8427 6.70244 11.9303 7.36204 11.8291 8.00612C11.728 8.6502 11.4424 9.2512 11.007 9.73645ZM5.87554 13.9883L5.86279 14.1249H6H10.92H11.0572L11.0445 13.9883C10.9026 12.4684 10.4335 11.6787 9.89226 11.2748C9.35646 10.8749 8.77637 10.8749 8.46455 10.8749H8.46H8.45545C8.14363 10.8749 7.56354 10.8749 7.02774 11.2748C6.48652 11.6787 6.0174 12.4684 5.87554 13.9883ZM7.14886 6.59714C6.9703 6.86437 6.875 7.17854 6.875 7.49994C6.875 7.93091 7.0462 8.34424 7.35095 8.64899C7.6557 8.95373 8.06902 9.12494 8.5 9.12494C8.82139 9.12494 9.13557 9.02963 9.4028 8.85108C9.67003 8.67252 9.87831 8.41873 10.0013 8.1218C10.1243 7.82487 10.1565 7.49813 10.0938 7.18291C10.0311 6.8677 9.87631 6.57815 9.64905 6.35089C9.42179 6.12363 9.13224 5.96886 8.81702 5.90616C8.5018 5.84346 8.17507 5.87564 7.87814 5.99863C7.58121 6.12162 7.32742 6.32991 7.14886 6.59714ZM16 5.12494H23C23.2321 5.12494 23.4546 5.21712 23.6187 5.38122C23.7828 5.54531 23.875 5.76787 23.875 5.99994C23.875 6.232 23.7828 6.45456 23.6187 6.61866C23.4546 6.78275 23.2321 6.87494 23 6.87494H16C15.7679 6.87494 15.5454 6.78275 15.3813 6.61866C15.2172 6.45456 15.125 6.232 15.125 5.99994C15.125 5.76787 15.2172 5.54531 15.3813 5.38122C15.5454 5.21712 15.7679 5.12494 16 5.12494ZM16 9.12494H23C23.2321 9.12494 23.4546 9.21712 23.6187 9.38122C23.7828 9.54531 23.875 9.76787 23.875 9.99994C23.875 10.232 23.7828 10.4546 23.6187 10.6187C23.4546 10.7828 23.2321 10.8749 23 10.8749H16C15.7679 10.8749 15.5454 10.7828 15.3813 10.6187C15.2172 10.4546 15.125 10.232 15.125 9.99994C15.125 9.76787 15.2172 9.54531 15.3813 9.38122C15.5454 9.21712 15.7679 9.12494 16 9.12494ZM16 13.1249H23C23.2321 13.1249 23.4546 13.2171 23.6187 13.3812C23.7828 13.5453 23.875 13.7679 23.875 13.9999C23.875 14.232 23.7828 14.4546 23.6187 14.6187C23.4546 14.7828 23.2321 14.8749 23 14.8749H16C15.7679 14.8749 15.5454 14.7828 15.3813 14.6187C15.2172 14.4546 15.125 14.232 15.125 13.9999C15.125 13.7679 15.2172 13.5453 15.3813 13.3812C15.5454 13.2171 15.7679 13.1249 16 13.1249Z" fill="#008D3E" stroke="white" stroke-width="0.25"/>
</svg>
