<svg width="32" height="32" viewBox="0 0 32 32" fill="none" xmlns="http://www.w3.org/2000/svg">
<path d="M16.1411 29.7243L30.7558 29.9563L15.9669 29.1783L16.2141 29.6559L16.1411 29.7243Z" fill="#008D3E"/>
<path fill-rule="evenodd" clip-rule="evenodd" d="M16.6871 29.9563H30.7558C30.9634 29.9563 31.1632 29.873 31.302 29.7241L30.7558 29.9563L31.2288 29.6559C31.3483 29.529 31.4023 29.36 31.3771 29.1932L31.476 29.1784C30.9349 25.5633 27.5958 22.8459 23.7165 22.8459C19.8433 22.8459 16.508 25.5633 15.9669 29.1783C15.9371 29.3764 16.0014 29.5758 16.1411 29.7243C16.2798 29.873 16.4795 29.9563 16.6871 29.9563ZM16.1411 29.7243L15.9669 29.1783L30.7558 29.9563L16.1411 29.7243ZM1.89291 16.5429H15.9616C16.1691 16.5429 16.3687 16.4598 16.5075 16.3112L15.9616 16.5429L16.4346 16.2426C16.5541 16.1157 16.6081 15.9467 16.5829 15.7799L16.6818 15.765C16.1407 12.1498 12.801 9.43253 8.92236 9.43253C5.0491 9.43253 1.71378 12.15 1.17268 15.7651C1.14288 15.9631 1.20721 16.1625 1.34689 16.311C1.48565 16.4597 1.68535 16.5429 1.89291 16.5429ZM29.8621 28.5907C29.1017 26.0496 26.5964 24.2114 23.7165 24.2114C20.8422 24.2114 18.3405 26.0495 17.5808 28.5907H29.8621ZM23.7184 21.5786C21.726 21.5786 20.092 20.0712 20.092 18.2033C20.092 16.3321 21.7258 14.8222 23.7184 14.8222C25.7145 14.8222 27.3509 16.3319 27.3509 18.2033C27.3509 20.0713 25.7143 21.5786 23.7184 21.5786ZM23.7184 20.2131C24.9266 20.2131 25.896 19.3043 25.896 18.2033C25.896 17.0986 24.9264 16.1878 23.7184 16.1878C22.5143 16.1878 21.5469 17.0984 21.5469 18.2033C21.5469 19.3045 22.5141 20.2131 23.7184 20.2131ZM15.0673 15.1774C14.3075 12.6362 11.8023 10.7981 8.92236 10.7981C6.04799 10.7981 3.54631 12.6361 2.78658 15.1774H15.0673ZM8.92419 8.42938C6.96427 8.42938 5.35665 6.9464 5.35665 5.10865C5.35665 3.26764 6.96411 1.78223 8.92419 1.78223C10.8878 1.78223 12.4979 3.26749 12.4979 5.10865C12.4979 6.94656 10.8876 8.42938 8.92419 8.42938ZM8.92419 7.0638C10.1 7.0638 11.0429 6.1795 11.0429 5.10865C11.0429 4.03415 10.0997 3.14782 8.92419 3.14782C7.75262 3.14782 6.81156 4.03391 6.81156 5.10865C6.81156 6.17974 7.75236 7.0638 8.92419 7.0638ZM5.83705 18.7713C5.83705 18.3871 6.16954 18.0885 6.5645 18.0885C6.95946 18.0885 7.29195 18.3871 7.29195 18.7713V24.1833H15.5841C15.9791 24.1833 16.3116 24.4819 16.3116 24.8661C16.3116 25.2503 15.9791 25.5489 15.5841 25.5489H6.5645C6.16954 25.5489 5.83705 25.2503 5.83705 24.8661V18.7713ZM28.9587 10.7937C28.9587 11.1779 28.6262 11.4765 28.2313 11.4765C27.8363 11.4765 27.5038 11.1779 27.5038 10.7937V5.38224H19.2116C18.8167 5.38224 18.4842 5.08363 18.4842 4.69945C18.4842 4.31526 18.8167 4.01665 19.2116 4.01665H28.2313C28.6262 4.01665 28.9587 4.31526 28.9587 4.69945V10.7937Z" fill="#008D3E"/>
<path d="M30.7558 29.9563H16.6871C16.4795 29.9563 16.2798 29.873 16.1411 29.7243M30.7558 29.9563L16.1411 29.7243M30.7558 29.9563L31.2288 29.6559C31.3483 29.529 31.4023 29.36 31.3771 29.1932L31.476 29.1784C30.9349 25.5633 27.5958 22.8459 23.7165 22.8459C19.8433 22.8459 16.508 25.5633 15.9669 29.1783M30.7558 29.9563L15.9669 29.1783M30.7558 29.9563C30.9634 29.9563 31.1632 29.873 31.302 29.7241L30.7558 29.9563ZM16.1411 29.7243L16.2141 29.6559L15.9669 29.1783M16.1411 29.7243C16.0014 29.5758 15.9371 29.3764 15.9669 29.1783M16.1411 29.7243L15.9669 29.1783M15.9616 16.5429H1.89291C1.68535 16.5429 1.48565 16.4597 1.34689 16.311C1.20721 16.1625 1.14288 15.9631 1.17268 15.7651C1.71378 12.15 5.0491 9.43253 8.92236 9.43253C12.801 9.43253 16.1407 12.1498 16.6818 15.765L16.5829 15.7799C16.6081 15.9467 16.5541 16.1157 16.4346 16.2426L15.9616 16.5429ZM15.9616 16.5429C16.1691 16.5429 16.3687 16.4598 16.5075 16.3112L15.9616 16.5429ZM23.7165 24.2114C26.5964 24.2114 29.1017 26.0496 29.8621 28.5907H17.5808C18.3405 26.0495 20.8422 24.2114 23.7165 24.2114ZM20.092 18.2033C20.092 20.0712 21.726 21.5786 23.7184 21.5786C25.7143 21.5786 27.3509 20.0713 27.3509 18.2033C27.3509 16.3319 25.7145 14.8222 23.7184 14.8222C21.7258 14.8222 20.092 16.3321 20.092 18.2033ZM25.896 18.2033C25.896 19.3043 24.9266 20.2131 23.7184 20.2131C22.5141 20.2131 21.5469 19.3045 21.5469 18.2033C21.5469 17.0984 22.5143 16.1878 23.7184 16.1878C24.9264 16.1878 25.896 17.0986 25.896 18.2033ZM8.92236 10.7981C11.8023 10.7981 14.3075 12.6362 15.0673 15.1774H2.78658C3.54631 12.6361 6.04799 10.7981 8.92236 10.7981ZM5.35665 5.10865C5.35665 6.9464 6.96427 8.42938 8.92419 8.42938C10.8876 8.42938 12.4979 6.94656 12.4979 5.10865C12.4979 3.26749 10.8878 1.78223 8.92419 1.78223C6.96411 1.78223 5.35665 3.26764 5.35665 5.10865ZM11.0429 5.10865C11.0429 6.1795 10.1 7.0638 8.92419 7.0638C7.75236 7.0638 6.81156 6.17974 6.81156 5.10865C6.81156 4.03391 7.75262 3.14782 8.92419 3.14782C10.0997 3.14782 11.0429 4.03415 11.0429 5.10865ZM6.5645 18.0885C6.16954 18.0885 5.83705 18.3871 5.83705 18.7713V24.8661C5.83705 25.2503 6.16954 25.5489 6.5645 25.5489H15.5841C15.9791 25.5489 16.3116 25.2503 16.3116 24.8661C16.3116 24.4819 15.9791 24.1833 15.5841 24.1833H7.29195V18.7713C7.29195 18.3871 6.95946 18.0885 6.5645 18.0885ZM28.2313 11.4765C28.6262 11.4765 28.9587 11.1779 28.9587 10.7937V4.69945C28.9587 4.31526 28.6262 4.01665 28.2313 4.01665H19.2116C18.8167 4.01665 18.4842 4.31526 18.4842 4.69945C18.4842 5.08363 18.8167 5.38224 19.2116 5.38224H27.5038V10.7937C27.5038 11.1779 27.8363 11.4765 28.2313 11.4765Z" stroke="#008D3E" stroke-width="0.2"/>
</svg>
