<svg width="32" height="32" viewBox="0 0 32 32" fill="none" xmlns="http://www.w3.org/2000/svg">
<path d="M14 2C10.6981 2 8 4.69813 8 8C8 11.3019 10.6981 14 14 14C17.3019 14 20 11.3019 20 8C20 4.69813 17.3019 2 14 2ZM14 4C16.221 4 18 5.77901 18 8C18 10.221 16.221 12 14 12C11.779 12 10 10.221 10 8C10 5.77901 11.779 4 14 4ZM11 16C6.0313 16 2 20.0313 2 25V27C2.00003 27.2652 2.10539 27.5195 2.29292 27.7071C2.48045 27.8946 2.73479 28 3 28H13.8477C13.9802 28.0019 14.1118 27.9774 14.2347 27.928C14.3577 27.8786 14.4696 27.8052 14.564 27.7122C14.6584 27.6191 14.7333 27.5082 14.7844 27.386C14.8356 27.2637 14.8619 27.1325 14.8619 27C14.8619 26.8675 14.8356 26.7363 14.7844 26.614C14.7333 26.4918 14.6584 26.3809 14.564 26.2878C14.4696 26.1948 14.3577 26.1214 14.2347 26.072C14.1118 26.0226 13.9802 25.9981 13.8477 26H4V25C4 21.1047 7.1047 18 11 18H15.0156C15.1481 18.0019 15.2797 17.9774 15.4026 17.928C15.5256 17.8786 15.6375 17.8052 15.7319 17.7122C15.8263 17.6191 15.9012 17.5082 15.9523 17.386C16.0035 17.2637 16.0298 17.1325 16.0298 17C16.0298 16.8675 16.0035 16.7363 15.9523 16.614C15.9012 16.4918 15.8263 16.3809 15.7319 16.2878C15.6375 16.1948 15.5256 16.1214 15.4026 16.072C15.2797 16.0226 15.1481 15.9981 15.0156 16H11ZM22.9868 15.9999C22.4291 16.0089 21.989 16.4621 21.9966 17.0136V18.1014C21.3601 18.2325 20.7671 18.4884 20.2427 18.8377L19.4751 18.0702C19.2394 17.8278 18.9719 17.7364 18.7193 17.7499C17.9618 17.7903 17.3337 18.7772 18.061 19.4842L18.8325 20.2556C18.485 20.7807 18.2294 21.3729 18.1001 22.0094H17.0142C15.6619 21.9903 15.6619 24.0285 17.0142 24.0094H18.104C18.2348 24.64 18.4893 25.227 18.8345 25.7476L18.0571 26.5249C17.0874 27.4676 18.5285 28.9086 19.4712 27.9389L20.2466 27.1635C20.7702 27.5116 21.3615 27.7671 21.9966 27.8979V28.9857C21.9776 30.338 24.0156 30.338 23.9965 28.9857V27.8999C24.631 27.7702 25.2211 27.514 25.7445 27.1675L26.5258 27.9487C26.9189 28.3529 27.5694 28.3529 27.9574 27.9527C28.3453 27.552 28.3356 26.9194 27.9394 26.5348L27.1621 25.7575C27.5103 25.2347 27.765 24.6436 27.8964 24.0095H28.9862C29.5499 24.0175 30.0086 23.5574 29.9999 22.9998C29.9899 22.4422 29.5377 22.002 28.9862 22.0096H27.9003C27.7703 21.3695 27.5146 20.7732 27.1641 20.246L27.9354 19.4745C28.3397 19.0816 28.3398 18.431 27.9354 18.0429C27.7362 17.8499 27.4796 17.7553 27.2246 17.7578C26.9696 17.7628 26.7166 17.8638 26.5253 18.0605L25.7518 18.8339C25.2275 18.4862 24.6359 18.2295 23.9999 18.0996V17.0137C24.0099 16.45 23.5477 15.9913 22.9902 16L22.9868 15.9999ZM23.0008 19.9998C24.6695 19.9998 26.0007 21.331 26.0007 22.9996C26.0007 24.6683 24.6695 25.9995 23.0008 25.9995C21.332 25.9995 20.0008 24.6683 20.0008 22.9996C20.0008 21.331 21.332 19.9998 23.0008 19.9998Z" fill="#008D3E"/>
</svg>
