<svg width="32" height="32" viewBox="0 0 32 32" fill="none" xmlns="http://www.w3.org/2000/svg">
<path d="M19.4209 18.0636C19.454 18.0688 19.4887 18.0713 19.5209 18.0713C19.8349 18.0713 20.1122 17.8441 20.163 17.5249L20.1631 17.5245C20.2308 17.0923 20.58 16.6643 21.0093 16.5344L21.0193 16.5314L21.0288 16.5271L23.7744 15.2603C23.7744 15.2603 23.7745 15.2602 23.7746 15.2602C24.1008 15.1107 24.2424 14.7259 24.0896 14.4023C23.937 14.078 23.5508 13.9415 23.2273 14.0902L23.2268 14.0904L20.5599 15.3269C19.7193 15.5775 19.0203 16.4163 18.8777 17.3275L18.8777 17.3276C18.8228 17.6801 19.0672 18.0094 19.4209 18.0636ZM19.4209 18.0636C19.4207 18.0635 19.4206 18.0635 19.4204 18.0635L19.4439 17.9154M19.4209 18.0636C19.421 18.0636 19.4212 18.0636 19.4213 18.0636L19.4439 17.9154M19.4439 17.9154C19.1709 17.8737 18.9839 17.6202 19.0259 17.3507L23.9539 14.4662C24.0709 14.7138 23.9629 15.009 23.7119 15.1239L20.9659 16.3909C20.4779 16.5385 20.0909 17.0159 20.0149 17.5013C19.9759 17.746 19.7629 17.9213 19.5209 17.9213C19.4959 17.9213 19.4689 17.9193 19.4439 17.9154Z" fill="#008D3E" stroke="#008D3E" stroke-width="0.3"/>
<path d="M18.2608 19.7147L18.2598 19.7144L13.2039 17.9601C13.2039 17.9601 13.2038 17.9601 13.2038 17.9601C12.9708 17.8793 12.8034 17.6747 12.7732 17.4319L12.7732 17.432L18.2608 19.7147ZM18.2608 19.7147C18.2775 19.7204 18.4048 19.7705 18.7584 19.9997C18.8688 20.0716 18.9913 20.105 19.114 20.105C19.3234 20.105 19.5325 20.004 19.6588 19.8143L19.659 19.814C19.8565 19.5161 19.771 19.1145 19.4718 18.92L19.39 19.0457L19.4718 18.92C19.1439 18.7068 18.8875 18.5657 18.6916 18.497L18.6911 18.4969L14.0141 16.8751L18.2608 19.7147ZM9.28284 16.999L9.28281 16.9992L9.22787 17.4326L9.28284 16.999ZM9.28284 16.999C9.32718 16.6437 9.07334 16.3223 8.71975 16.278C8.36427 16.2282 8.0366 16.4838 7.99221 16.8376C7.99219 16.8377 7.99217 16.8378 7.99215 16.838L7.98731 16.8749L3.30996 18.4958C3.30994 18.4958 3.30991 18.4959 3.30988 18.4959C2.62521 18.7327 2.01176 19.2371 1.57004 19.854C1.12834 20.4709 0.85 21.212 0.85 21.9322V26.3511C0.85 26.7087 1.1425 26.9964 1.5 26.9964C1.8575 26.9964 2.15 26.7087 2.15 26.3511V21.9322C2.15 21.4988 2.33234 21.0166 2.62909 20.602C2.9258 20.1876 3.32495 19.8574 3.73895 19.7145L3.73913 19.7144M9.28284 16.999L3.73913 19.7144M3.73913 19.7144L8.79644 17.9614C8.79655 17.9613 8.79666 17.9613 8.79677 17.9612M3.73913 19.7144L8.79677 17.9612M8.79677 17.9612C9.03041 17.8814 9.19757 17.6765 9.22781 17.4331L8.79677 17.9612ZM29.0414 16.553L29.0514 16.5576L29.0619 16.5607C29.2603 16.6187 29.4588 16.7744 29.6092 16.9849C29.7593 17.1948 29.85 17.4433 29.85 17.6698V21.4429C29.85 21.8005 30.1425 22.0882 30.5 22.0882C30.8575 22.0882 31.15 21.8005 31.15 21.4429V17.6698C31.15 17.149 30.9606 16.6341 30.6636 16.2192C30.3695 15.8085 29.9619 15.4848 29.5094 15.3535L27.15 14.2644V13.8009C27.789 13.2108 28.15 12.4003 28.15 11.5313V10.5407V10.5266C28.15 9.88631 28.1501 8.98831 27.7574 8.25051C27.5571 7.8741 27.2552 7.53953 26.8047 7.30059C26.3558 7.06253 25.7676 6.92373 25 6.92373C24.2324 6.92373 23.6442 7.06253 23.1953 7.30059C22.7448 7.53953 22.4429 7.8741 22.2426 8.25051C21.8499 8.98831 21.85 9.88631 21.85 10.5266V10.5407V11.5313C21.85 12.4012 22.2109 13.2118 22.85 13.801V14.6773C22.85 15.0349 23.1425 15.3226 23.5 15.3226C23.8575 15.3226 24.15 15.0349 24.15 14.6773V13.5005C24.15 13.2983 24.0552 13.1068 23.8915 12.9859C23.4183 12.6309 23.15 12.1014 23.15 11.5313V10.5407C23.15 10.1568 23.1562 9.81868 23.1937 9.52503C23.2312 9.23152 23.2987 8.99344 23.4142 8.80519C23.6358 8.44409 24.0689 8.2143 25 8.2143C25.9311 8.2143 26.3642 8.44409 26.5858 8.80519C26.7013 8.99344 26.7688 9.23152 26.8063 9.52503C26.8438 9.81868 26.85 10.1568 26.85 10.5407V11.5313C26.85 12.1014 26.5817 12.6309 26.1085 12.9859C25.9448 13.1068 25.85 13.2983 25.85 13.5005V14.6753C25.85 14.9261 25.9961 15.1548 26.2267 15.2595C26.2268 15.2596 26.227 15.2596 26.2271 15.2597L29.0414 16.553ZM12.4822 15.127L12.7731 17.4317L13.0462 14.4057C12.6913 14.4506 12.4377 14.772 12.4822 15.1269L12.4822 15.127Z" fill="#008D3E" stroke="#008D3E" stroke-width="0.3"/>
<path d="M7.94782 9.61051C7.94633 8.8456 8.0216 8.33923 8.16758 7.95145C8.31224 7.56717 8.53066 7.28772 8.83841 6.98238C9.31801 6.50733 10.015 6.2641 10.9998 6.2641C11.9848 6.2641 12.6816 6.50739 13.159 6.98221L13.1592 6.98233C13.4669 7.28769 13.6854 7.56715 13.8301 7.95145C13.976 8.33923 14.0513 8.8456 14.0498 9.6105C14.0458 11.5942 13.7817 12.9136 13.2735 13.734C12.7757 14.5379 12.0319 14.8802 10.9988 14.8802C9.96572 14.8802 9.22195 14.5379 8.72409 13.734C8.21596 12.9136 7.9518 11.5942 7.94782 9.61051ZM7.94782 9.61051L7.79782 9.6108L7.94782 9.61051ZM7.65595 23.7689L7.6561 23.7689L7.76895 23.8055L7.65595 23.7689ZM7.65595 23.7689C7.37297 23.6774 7.12025 23.5757 6.93932 23.4371C6.765 23.3035 6.66382 23.1414 6.66382 22.9161C6.66382 22.6606 6.75314 22.4526 6.8985 22.3086C7.04397 22.1645 7.25469 22.0755 7.51382 22.0755C7.83919 22.0755 8.11129 22.1621 8.30299 22.2497C8.39868 22.2934 8.47359 22.337 8.52411 22.3694C8.54935 22.3856 8.56838 22.3989 8.58074 22.4079L8.59399 22.4177L8.59573 22.4191L8.596 22.4193L7.65595 23.7689ZM6.64882 9.61205V9.61208C6.65334 11.9123 7.00923 13.5513 7.73663 14.6183C8.4726 15.6978 9.57301 16.1698 10.9998 16.1698C12.4266 16.1698 13.527 15.6978 14.2631 14.6184C14.9906 13.5516 15.3468 11.9128 15.3518 9.61311V9.61304C15.3538 8.43671 15.2275 7.2073 14.0805 6.07009C13.3411 5.33555 12.2987 4.97354 10.9998 4.97354C9.7009 4.97354 8.65854 5.33555 7.9191 6.07009C6.77318 7.2073 6.64679 8.43569 6.64882 9.61205ZM20.1767 28.9235L20.1769 28.9236C20.277 28.9803 20.3885 29.0085 20.4998 29.0085C20.6118 29.0085 20.725 28.9804 20.8272 28.9208C20.8273 28.9208 20.8274 28.9207 20.8275 28.9206L26.8269 25.454L26.8273 25.4537C27.0255 25.3383 27.1498 25.127 27.1498 24.8962C27.1498 24.6654 27.0255 24.4542 26.8273 24.3387L26.8269 24.3384L20.8272 20.8716C20.8272 20.8716 20.8272 20.8716 20.8271 20.8716C20.625 20.7541 20.3774 20.756 20.1773 20.8686L20.1767 20.8689C19.9751 20.9836 19.8498 21.1976 19.8498 21.4292V22.7651H12.4998C12.1423 22.7651 11.8498 23.0528 11.8498 23.4104C11.8498 23.7679 12.1423 24.0557 12.4998 24.0557H20.4998C20.8573 24.0557 21.1498 23.7679 21.1498 23.4104V22.551L25.208 24.8962L21.1498 27.2415V26.3821C21.1498 26.0245 20.8573 25.7368 20.4998 25.7368H12.4998C12.1423 25.7368 11.8498 26.0245 11.8498 26.3821C11.8498 26.7396 12.1423 27.0273 12.4998 27.0273H19.8498V28.3632C19.8498 28.5948 19.9751 28.8088 20.1767 28.9235ZM8.59617 22.4195C8.87215 22.6479 9.27947 22.6123 9.51079 22.342L9.51124 22.3415C9.74348 22.0675 9.7064 21.6613 9.432 21.432L9.43131 21.4314C9.39234 21.3993 8.64239 20.7849 7.51382 20.7849C6.29127 20.7849 5.36382 21.7027 5.36382 22.9161C5.36382 23.6551 5.73206 24.1445 6.15034 24.4615C6.56352 24.7747 7.03151 24.9248 7.25267 24.9954C7.25286 24.9954 7.25305 24.9955 7.25324 24.9955L7.36554 25.032L7.36566 25.032C7.89438 25.203 8.27162 25.4039 8.51475 25.6307C8.75347 25.8534 8.86382 26.1012 8.86382 26.3831C8.86382 27.1458 8.28732 27.7189 7.51382 27.7189C6.65621 27.7189 6.16405 27.1585 6.03341 26.9859C5.8171 26.6996 5.40982 26.6452 5.12471 26.8557L5.12454 26.8559C4.83609 27.0695 4.77652 27.4741 4.99297 27.76C5.21463 28.0545 6.05151 29.0095 7.51382 29.0095C8.99732 29.0095 10.1638 27.856 10.1638 26.3831C10.1638 25.7828 9.95657 25.2602 9.54756 24.8255C9.14169 24.3942 8.54347 24.0559 7.76909 23.8056L8.59617 22.4195Z" fill="#008D3E" stroke="#008D3E" stroke-width="0.3"/>
<path d="M7.51416 30C7.87166 30 8.16416 29.7123 8.16416 29.3547V28.8594C8.16416 28.5019 7.87166 28.2141 7.51416 28.2141C7.15666 28.2141 6.86416 28.5019 6.86416 28.8594V29.3547C6.86416 29.7121 7.15546 30 7.51416 30ZM7.51416 21.5802C7.87166 21.5802 8.16416 21.2925 8.16416 20.9349V20.4396C8.16416 20.082 7.87166 19.7943 7.51416 19.7943C7.15666 19.7943 6.86416 20.082 6.86416 20.4396V20.9349C6.86416 21.2923 7.15546 21.5802 7.51416 21.5802Z" fill="#008D3E" stroke="#008D3E" stroke-width="0.3"/>
</svg>
