<svg width="20" height="20" viewBox="0 0 20 20" fill="none" xmlns="http://www.w3.org/2000/svg">
<path d="M10.0002 19.8002C15.4126 19.8002 19.8002 15.4126 19.8002 10.0002C19.8002 4.5878 15.4126 0.200195 10.0002 0.200195C4.5878 0.200195 0.200195 4.5878 0.200195 10.0002C0.200195 15.4126 4.5878 19.8002 10.0002 19.8002Z" fill="#50AF95"/>
<path d="M11.22 8.18503V6.71523H14.5834V4.47363H5.4256V6.71503H8.789V8.18423C6.0556 8.30983 4 8.85163 4 9.50023C4 10.1488 6.0558 10.6898 8.7892 10.816V15.5262H11.22V10.8148C17.5564 10.5036 17.552 8.49663 11.22 8.18503Z" fill="white"/>
<path d="M11.22 10.4151C9.58204 10.5539 4.55464 10.2807 4.57084 9.38569C4.57084 8.88309 6.37364 8.46249 8.78904 8.35449V9.99709C8.91344 10.0405 11.1874 10.0393 11.22 9.99769V8.35569C16.802 8.61989 16.8032 10.1527 11.22 10.4151Z" fill="#50AF95"/>
</svg>
