<svg width="186" height="70" viewBox="0 0 186 70" fill="none" xmlns="http://www.w3.org/2000/svg">
<path d="M36.6919 16.4149C33.4122 16.4576 28.2978 18.0562 23.2855 20.4549C18.2731 22.8536 13.3237 26.0485 10.2221 29.1501C7.36308 32.0092 6.49829 34.3117 6.59778 36.269C6.68732 38.0305 7.59224 39.617 8.82353 41.106L15.1344 36.3155C16.0457 35.6238 16.9104 34.9487 17.9043 34.6461C18.8982 34.3436 20.0648 34.5686 21.005 35.5088C21.9454 36.4492 22.1503 37.6129 21.8322 38.5932C21.514 39.5734 20.8375 40.4189 20.1574 41.3275L15.3764 47.7149C16.8192 48.9731 18.3134 49.8914 20.0152 49.9694C21.9021 50.0559 24.2083 49.1436 27.212 46.1399C31.0435 42.3084 35.1591 35.8577 37.7802 29.9349C39.0908 26.9734 40.0295 24.1383 40.3956 21.8604C40.7617 19.5824 40.4961 17.9454 39.794 17.2434C39.2678 16.7172 38.2059 16.3952 36.6919 16.4149ZM18.4388 19.9053C18.1022 19.9006 17.7459 19.9024 17.3711 19.9121C14.918 19.9756 11.7836 20.3838 8.50635 21.6594C1.255 24.4818 0.735351 27.9552 0.735352 27.9552L5.80482 33.0342C6.41663 31.5061 7.50729 29.8853 9.23232 28.1603C12.1433 25.2493 16.4322 22.3851 20.9353 20.0639C20.2848 19.9899 19.4488 19.9194 18.4388 19.9053ZM27.9475 21.8344C29.6019 21.8344 31.2568 22.4626 32.5152 23.7211C35.0322 26.238 35.0322 30.3396 32.5152 32.8565C29.9983 35.3734 25.894 35.3762 23.3771 32.8592C20.8601 30.3423 20.8642 26.238 23.3812 23.7211C24.6397 22.4626 26.2931 21.8344 27.9475 21.8344L27.9475 21.8344ZM24.371 24.7123C22.3891 26.6942 22.385 29.8875 24.3669 31.8694C26.3488 33.8514 29.5461 33.8514 31.5281 31.8694C33.51 29.8875 33.5073 26.6942 31.5254 24.7123C29.8366 22.85 26.4284 22.7165 24.371 24.7123V24.7123ZM36.5197 35.5826C34.0809 39.9925 31.116 44.2155 28.2018 47.1298C26.474 48.8575 24.8889 49.979 23.4112 50.6379L28.6461 55.866C28.6461 55.866 32.1196 55.3463 34.942 48.095C37.0313 42.727 36.7873 37.8093 36.5197 35.5826ZM18.3131 35.9846C17.6888 36.1746 16.8863 36.7447 15.982 37.4311L9.17216 42.5962L9.1667 42.6017C9.15864 42.6083 9.15043 42.6146 9.14209 42.6208L8.77295 42.9011C8.02329 43.4988 8.11095 44.1487 8.55418 44.7988C8.66389 44.9692 8.79707 45.1486 8.94655 45.3347C9.24651 45.7066 9.61607 46.104 10.0116 46.4996C10.2086 46.6966 10.406 46.888 10.6008 47.0669C10.6015 47.0676 10.6029 47.0676 10.6036 47.0683C10.7983 47.2467 10.9891 47.4151 11.175 47.5646C11.1757 47.5652 11.1771 47.5654 11.1778 47.566C11.2271 47.6056 11.2716 47.6328 11.32 47.6699C11.637 47.913 11.9378 48.1119 12.1949 48.2154C12.492 48.335 12.7094 48.3514 12.9072 48.2974C13.1051 48.2435 13.3295 48.107 13.6045 47.7396L19.0363 40.4895C19.722 39.5734 20.304 38.7738 20.5032 38.1599C20.7974 36.8757 19.5909 35.6625 18.3131 35.9846V35.9846ZM5.91556 39.1017C3.3731 40.4024 2.34635 42.9791 2.32127 45.6081C2.29459 48.4047 2.81496 47.7776 5.54779 47.7942C6.83727 49.8009 -1.37231 51.441 1.45312 54.2664C4.51321 57.3265 12.021 56.7359 15.0811 53.6758C16.0974 52.7383 16.7991 51.7128 17.2726 50.653C16.2902 50.1757 15.3947 49.5103 14.5547 48.7827C14.1819 49.2146 13.7521 49.5221 13.275 49.6522C12.7244 49.8024 12.1664 49.7156 11.6727 49.5168C10.6854 49.1194 9.84269 48.313 9.02177 47.4921C8.81658 47.2869 8.61216 47.08 8.41475 46.87C8.41451 46.8698 8.41498 46.8689 8.41475 46.8686C7.92195 46.3444 7.47316 45.8004 7.16515 45.2061C6.95908 44.8492 6.70213 43.9532 6.86164 43.2388C6.99456 42.7487 7.31444 42.3093 7.76397 41.9277C7.04405 41.0551 6.38768 40.1203 5.91556 39.1017Z" fill="white"/>
<path d="M69.428 31.094C69.6187 31.094 69.7653 31.182 69.868 31.358C69.9853 31.534 70.044 31.776 70.044 32.084C70.044 32.656 69.9047 33.1107 69.626 33.448C68.174 35.2227 66.6267 36.11 64.984 36.11C63.5613 36.11 62.4247 35.56 61.574 34.46C60.7233 33.36 60.298 31.7833 60.298 29.73C60.298 29.2313 60.32 28.7327 60.364 28.234C59.396 28.41 58.34 28.542 57.196 28.63C56.4333 28.6887 55.9127 28.7253 55.634 28.74C55.3407 30.236 54.93 32.0693 54.402 34.24C54.094 35.516 53.5073 36.154 52.642 36.154C51.7033 36.154 51.234 35.7287 51.234 34.878C51.234 34.6873 51.2707 34.4233 51.344 34.086C51.8427 32.0767 52.2387 30.3753 52.532 28.982L51.476 29.026C50.992 29.026 50.64 28.9453 50.42 28.784C50.2 28.608 50.09 28.3293 50.09 27.948C50.09 27.464 50.2293 27.112 50.508 26.892C50.7867 26.6573 51.2487 26.5253 51.894 26.496L53.06 26.452C53.4413 24.384 53.632 22.8073 53.632 21.722C53.632 21.0327 53.5293 20.5633 53.324 20.314C53.1187 20.0647 52.8473 19.94 52.51 19.94C51.4833 19.94 50.3247 20.798 49.034 22.514C48.8433 22.7633 48.6307 22.888 48.396 22.888C48.1907 22.888 48.0147 22.7927 47.868 22.602C47.7213 22.4113 47.648 22.1693 47.648 21.876C47.648 21.4213 47.8313 20.9373 48.198 20.424C48.8433 19.5293 49.6573 18.796 50.64 18.224C51.6227 17.6373 52.62 17.344 53.632 17.344C54.5853 17.344 55.3187 17.674 55.832 18.334C56.36 18.9793 56.624 19.9913 56.624 21.37C56.624 22.5873 56.448 24.2373 56.096 26.32L58.252 26.21C59.176 26.166 59.968 26.0927 60.628 25.99C60.892 24.3767 61.2953 22.866 61.838 21.458C62.3807 20.05 63.0553 18.906 63.862 18.026C64.6687 17.146 65.5707 16.706 66.568 16.706C67.3013 16.706 67.8807 16.9993 68.306 17.586C68.7313 18.158 68.944 18.9133 68.944 19.852C68.944 23.4893 67.0887 26.012 63.378 27.42C63.334 28.0067 63.312 28.6153 63.312 29.246C63.312 30.786 63.5027 31.8787 63.884 32.524C64.2653 33.1693 64.8007 33.492 65.49 33.492C66.0913 33.492 66.6413 33.338 67.14 33.03C67.6387 32.7073 68.2033 32.1647 68.834 31.402C69.01 31.1967 69.208 31.094 69.428 31.094ZM66.458 18.62C66.1353 18.62 65.7907 18.9133 65.424 19.5C65.072 20.0867 64.7347 20.886 64.412 21.898C64.0893 22.91 63.8327 24.0173 63.642 25.22C64.8153 24.736 65.6807 24.0467 66.238 23.152C66.7953 22.2573 67.074 21.106 67.074 19.698C67.074 19.3607 67.0153 19.0967 66.898 18.906C66.7807 18.7153 66.634 18.62 66.458 18.62ZM75.567 36.11C74.2617 36.11 73.081 35.8167 72.025 35.23C70.9837 34.6433 70.155 33.7853 69.539 32.656C68.923 31.512 68.615 30.148 68.615 28.564C68.615 26.3347 69.0184 24.3693 69.825 22.668C70.6464 20.9667 71.7537 19.654 73.147 18.73C74.555 17.806 76.1097 17.344 77.811 17.344C79.1164 17.344 80.2897 17.6373 81.331 18.224C82.387 18.8107 83.223 19.676 83.839 20.82C84.455 21.9493 84.763 23.306 84.763 24.89C84.763 27.1193 84.3524 29.0847 83.531 30.786C82.7244 32.4873 81.617 33.8 80.209 34.724C78.8157 35.648 77.2684 36.11 75.567 36.11ZM75.787 33.514C76.931 33.514 77.9357 33.162 78.801 32.458C79.681 31.754 80.3557 30.7787 80.825 29.532C81.2944 28.2707 81.529 26.848 81.529 25.264C81.529 23.5187 81.1624 22.1987 80.429 21.304C79.6957 20.3947 78.7497 19.94 77.591 19.94C76.4617 19.94 75.4644 20.292 74.599 20.996C73.7337 21.6853 73.059 22.6607 72.575 23.922C72.091 25.1687 71.849 26.5913 71.849 28.19C71.849 29.9353 72.2157 31.2627 72.949 32.172C73.6824 33.0667 74.6284 33.514 75.787 33.514ZM104.264 21.92C104.264 23.1667 103.824 24.2447 102.944 25.154C102.064 26.0487 100.781 26.694 99.094 27.09C100.003 27.3393 100.693 27.75 101.162 28.322C101.631 28.8793 101.866 29.5247 101.866 30.258C101.866 31.4167 101.499 32.4213 100.766 33.272C100.047 34.1227 98.9913 34.7827 97.598 35.252C96.2046 35.7067 94.5253 35.934 92.56 35.934C91.8266 35.934 91.24 35.912 90.8 35.868C90.7853 36.2787 90.6093 36.5867 90.272 36.792C89.9346 36.9973 89.502 37.1 88.974 37.1C88.446 37.1 88.0793 36.9827 87.874 36.748C87.6833 36.5133 87.6026 36.1687 87.632 35.714C87.764 33.6607 88.0206 31.512 88.402 29.268C88.7833 27.0093 89.2673 24.8313 89.854 22.734C89.9566 22.3673 90.162 22.1107 90.47 21.964C90.778 21.8173 91.1813 21.744 91.68 21.744C92.5746 21.744 93.022 21.9933 93.022 22.492C93.022 22.6973 92.978 22.932 92.89 23.196C92.5086 24.34 92.1273 25.8947 91.746 27.86C91.3646 29.8107 91.0933 31.6733 90.932 33.448C91.636 33.5067 92.208 33.536 92.648 33.536C94.7013 33.536 96.2046 33.2427 97.158 32.656C98.126 32.0547 98.61 31.292 98.61 30.368C98.61 29.7227 98.3313 29.18 97.774 28.74C97.2313 28.3 96.3146 28.058 95.024 28.014C94.7306 27.9993 94.5253 27.926 94.408 27.794C94.2906 27.662 94.232 27.4493 94.232 27.156C94.232 26.7307 94.32 26.386 94.496 26.122C94.672 25.858 94.9946 25.7187 95.464 25.704C96.5053 25.6747 97.444 25.5207 98.28 25.242C99.1306 24.9633 99.798 24.5747 100.282 24.076C100.766 23.5627 101.008 22.9687 101.008 22.294C101.008 21.4433 100.59 20.776 99.754 20.292C98.918 19.7933 97.6346 19.544 95.904 19.544C94.3346 19.544 92.8166 19.7493 91.35 20.16C89.8833 20.556 88.6366 21.062 87.61 21.678C87.1406 21.9567 86.7446 22.096 86.422 22.096C86.158 22.096 85.9526 22.008 85.806 21.832C85.674 21.6413 85.608 21.4067 85.608 21.128C85.608 20.7613 85.6813 20.446 85.828 20.182C85.9893 19.918 86.3633 19.6173 86.95 19.28C88.182 18.576 89.6266 18.026 91.284 17.63C92.9413 17.234 94.6353 17.036 96.366 17.036C99.0206 17.036 101.001 17.4833 102.306 18.378C103.611 19.2727 104.264 20.4533 104.264 21.92ZM109.965 36.11C108.953 36.11 108.037 35.8607 107.215 35.362C106.409 34.8633 105.771 34.1447 105.301 33.206C104.832 32.2527 104.597 31.1307 104.597 29.84C104.597 27.6107 105.074 25.55 106.027 23.658C106.981 21.7513 108.389 20.226 110.251 19.082C112.114 17.9233 114.351 17.344 116.961 17.344C117.636 17.344 118.355 17.3953 119.117 17.498C119.895 17.6007 120.599 17.7547 121.229 17.96C121.64 18.0773 121.845 18.3707 121.845 18.84C121.845 19.2213 121.699 19.5807 121.405 19.918C121.127 20.2553 120.797 20.424 120.415 20.424C120.298 20.424 120.21 20.4167 120.151 20.402C119.389 20.226 118.736 20.1013 118.193 20.028C117.651 19.94 117.079 19.896 116.477 19.896C114.615 19.896 113.031 20.3507 111.725 21.26C110.42 22.1547 109.445 23.3427 108.799 24.824C108.154 26.3053 107.831 27.904 107.831 29.62C107.831 30.8667 108.073 31.8347 108.557 32.524C109.056 33.1987 109.701 33.536 110.493 33.536C111.388 33.536 112.173 33.1693 112.847 32.436C113.522 31.7027 114.138 30.5147 114.695 28.872C115.253 27.2293 115.803 25 116.345 22.184C116.433 21.7733 116.609 21.4947 116.873 21.348C117.137 21.2013 117.489 21.128 117.929 21.128C118.971 21.128 119.491 21.4653 119.491 22.14C119.491 22.2573 119.469 22.404 119.425 22.58C119.044 24.0027 118.692 25.5793 118.369 27.31C118.061 29.026 117.907 30.3313 117.907 31.226C117.907 32.018 118.025 32.5973 118.259 32.964C118.494 33.316 118.853 33.492 119.337 33.492C119.807 33.492 120.254 33.338 120.679 33.03C121.105 32.7073 121.64 32.1647 122.285 31.402C122.461 31.1967 122.659 31.094 122.879 31.094C123.07 31.094 123.217 31.182 123.319 31.358C123.437 31.534 123.495 31.776 123.495 32.084C123.495 32.656 123.356 33.1107 123.077 33.448C122.359 34.3133 121.655 34.9733 120.965 35.428C120.276 35.8827 119.433 36.11 118.435 36.11C117.409 36.11 116.58 35.8167 115.949 35.23C115.319 34.6287 114.923 33.7853 114.761 32.7C113.676 34.9733 112.077 36.11 109.965 36.11ZM141.582 31.094C141.773 31.094 141.919 31.182 142.022 31.358C142.139 31.534 142.198 31.776 142.198 32.084C142.198 32.656 142.059 33.1107 141.78 33.448C141.061 34.3573 140.321 35.032 139.558 35.472C138.795 35.8973 137.981 36.11 137.116 36.11C135.943 36.11 135.085 35.7947 134.542 35.164C134.014 34.5333 133.75 33.5213 133.75 32.128C133.75 31.2187 133.86 30.126 134.08 28.85L134.036 28.872C132.423 31.38 130.897 33.228 129.46 34.416C128.023 35.5893 126.556 36.176 125.06 36.176C124.283 36.176 123.571 36.0293 122.926 35.736C122.281 35.428 121.767 35.01 121.386 34.482C121.019 33.954 120.836 33.3747 120.836 32.744C120.836 32.2307 120.931 31.8273 121.122 31.534C121.313 31.226 121.577 31.072 121.914 31.072C122.325 31.072 122.618 31.2847 122.794 31.71C123.161 32.5167 123.505 33.0667 123.828 33.36C124.151 33.6533 124.583 33.8 125.126 33.8C126.006 33.8 127.011 33.3453 128.14 32.436C129.269 31.512 130.347 30.3167 131.374 28.85C131.022 28.894 130.677 28.916 130.34 28.916C129.196 28.916 128.199 28.7033 127.348 28.278C126.497 27.838 125.845 27.222 125.39 26.43C124.935 25.638 124.708 24.7067 124.708 23.636C124.708 22.4187 124.965 21.3333 125.478 20.38C125.991 19.4267 126.71 18.686 127.634 18.158C128.558 17.6153 129.629 17.344 130.846 17.344C132.371 17.344 133.889 17.5787 135.4 18.048C135.517 17.8427 135.693 17.6887 135.928 17.586C136.163 17.4687 136.427 17.41 136.72 17.41C137.16 17.41 137.497 17.542 137.732 17.806C137.981 18.0553 138.106 18.4 138.106 18.84C138.106 19.3973 138.04 20.1087 137.908 20.974C137.791 21.8393 137.607 22.954 137.358 24.318C137.05 26.078 136.815 27.4933 136.654 28.564C136.507 29.6347 136.434 30.588 136.434 31.424C136.434 32.1427 136.551 32.6707 136.786 33.008C137.035 33.3307 137.417 33.492 137.93 33.492C138.399 33.492 138.869 33.3307 139.338 33.008C139.807 32.6853 140.357 32.15 140.988 31.402C141.149 31.1967 141.347 31.094 141.582 31.094ZM131.286 26.65C131.961 26.65 132.452 26.628 132.76 26.584C133.009 26.1147 133.229 25.6527 133.42 25.198C134.124 23.614 134.645 21.9713 134.982 20.27C134.205 20.0793 133.523 19.9473 132.936 19.874C132.364 19.786 131.77 19.742 131.154 19.742C130.039 19.742 129.196 20.0647 128.624 20.71C128.052 21.3553 127.766 22.2793 127.766 23.482C127.766 24.538 128.045 25.33 128.602 25.858C129.159 26.3713 130.054 26.6353 131.286 26.65ZM49.734 57L49.802 51.509L49.734 45.168C49.734 45.168 49.853 45.1567 50.091 45.134C50.329 45.1113 50.6463 45.083 51.043 45.049C51.451 45.015 51.8873 44.9867 52.352 44.964C52.828 44.9413 53.2927 44.93 53.746 44.93C54.7887 44.93 55.5933 45.2643 56.16 45.933C56.738 46.6017 57.027 47.6047 57.027 48.942C57.027 49.7807 56.925 50.472 56.721 51.016C56.517 51.56 56.2393 51.985 55.888 52.291C55.5367 52.597 55.1457 52.8123 54.715 52.937C54.2843 53.0617 53.8423 53.124 53.389 53.124C53.0263 53.124 52.6353 53.1127 52.216 53.09C51.808 53.056 51.519 53.0333 51.349 53.022V57H49.734ZM53.491 51.781C53.831 51.781 54.1087 51.7583 54.324 51.713C54.5507 51.6677 54.7263 51.5827 54.851 51.458C55.0323 51.2767 55.157 50.965 55.225 50.523C55.293 50.0697 55.327 49.486 55.327 48.772C55.327 48.1827 55.2987 47.7293 55.242 47.412C55.1853 47.0947 55.1173 46.868 55.038 46.732C54.9587 46.596 54.8737 46.4997 54.783 46.443C54.681 46.3637 54.5053 46.3013 54.256 46.256C54.0067 46.1993 53.7177 46.171 53.389 46.171C52.981 46.171 52.59 46.1937 52.216 46.239C51.842 46.273 51.553 46.307 51.349 46.341V51.577C51.485 51.5997 51.757 51.6393 52.165 51.696C52.5843 51.7527 53.0263 51.781 53.491 51.781ZM59.7115 57V45.168H65.7125V46.579L60.5955 46.528L61.3435 45.797L61.2245 50.846L60.5105 50.302H65.3045V51.662H60.5105L61.2245 51.067L61.3435 56.354L60.5955 55.623L65.7125 55.589V57H59.7115ZM66.8606 57L70.0736 45.168H72.3006L75.5306 57H73.8646L72.9636 53.43L73.7966 53.94H68.6116L69.4106 53.43L68.5096 57H66.8606ZM69.4276 53.277L68.9006 52.529H73.4906L72.9466 53.277L71.0766 45.899L71.9606 46.613H70.4136L71.3146 45.899L69.4276 53.277ZM76.2552 57.238L75.9662 55.98C76.1249 55.9573 76.2665 55.9347 76.3912 55.912C76.5272 55.878 76.6405 55.844 76.7312 55.81C76.9579 55.7307 77.1335 55.6173 77.2582 55.47C77.3829 55.3227 77.4792 55.0733 77.5472 54.722C77.6152 54.3593 77.6719 53.8323 77.7172 53.141L78.2272 45.168H84.8742V57H83.2592L83.3442 46.562L79.7232 46.579L79.2642 53.243C79.2189 54.0477 79.1339 54.7277 79.0092 55.283C78.8845 55.827 78.6579 56.2407 78.3292 56.524C78.0799 56.7393 77.7682 56.9093 77.3942 57.034C77.0315 57.17 76.6519 57.238 76.2552 57.238ZM88.3492 56.983C88.3492 56.983 88.4682 56.9943 88.7062 57.017C88.9442 57.0397 89.2446 57.068 89.6072 57.102C89.9699 57.136 90.3552 57.1643 90.7632 57.187C91.1826 57.2097 91.5736 57.221 91.9362 57.221C92.8429 57.221 93.5796 57.0793 94.1462 56.796C94.7129 56.5013 95.1266 56.0763 95.3872 55.521C95.6592 54.9543 95.7952 54.263 95.7952 53.447C95.7952 52.4383 95.6252 51.6563 95.2852 51.101C94.9452 50.5343 94.4806 50.1433 93.8912 49.928C93.3132 49.7013 92.6559 49.588 91.9192 49.588C91.4319 49.588 90.9842 49.605 90.5762 49.639C90.1796 49.6617 89.8906 49.6843 89.7092 49.707L89.9472 50.013V45.168H88.3492L88.4172 50.693L88.3492 56.983ZM92.0212 50.965C92.4632 50.965 92.8032 50.9877 93.0412 51.033C93.2906 51.067 93.4832 51.1577 93.6192 51.305C93.8119 51.4863 93.9366 51.7923 93.9932 52.223C94.0612 52.6423 94.0952 53.1013 94.0952 53.6C94.0952 54.2687 94.0329 54.7447 93.9082 55.028C93.7836 55.3 93.6589 55.4813 93.5342 55.572C93.4209 55.6513 93.2282 55.7137 92.9562 55.759C92.6956 55.8043 92.3556 55.827 91.9362 55.827C91.4376 55.827 90.9729 55.8043 90.5422 55.759C90.1229 55.7023 89.8396 55.657 89.6922 55.623L89.9642 56.541L89.9472 50.761L89.6582 51.169C89.8962 51.1237 90.2079 51.0783 90.5932 51.033C90.9899 50.9877 91.4659 50.965 92.0212 50.965ZM98.4596 57V45.168H100.075L100.024 50.795L99.2926 50.268H105.549L104.835 50.795L104.784 45.168H106.399V57H104.784L104.835 51.152L105.549 51.679H99.2926L100.024 51.152L100.075 57H98.4596ZM113.758 57.238C113.157 57.238 112.585 57.1473 112.041 56.966C111.508 56.7847 111.032 56.473 110.613 56.031C110.205 55.5777 109.882 54.9487 109.644 54.144C109.417 53.3393 109.304 52.308 109.304 51.05C109.304 49.8033 109.417 48.7833 109.644 47.99C109.882 47.1967 110.205 46.579 110.613 46.137C111.032 45.6837 111.508 45.372 112.041 45.202C112.585 45.0207 113.157 44.93 113.758 44.93C114.381 44.93 114.959 45.0207 115.492 45.202C116.025 45.372 116.495 45.6837 116.903 46.137C117.322 46.579 117.645 47.1967 117.872 47.99C118.11 48.7833 118.229 49.8033 118.229 51.05C118.229 52.308 118.11 53.3393 117.872 54.144C117.645 54.9487 117.322 55.5777 116.903 56.031C116.495 56.473 116.025 56.7847 115.492 56.966C114.959 57.1473 114.381 57.238 113.758 57.238ZM113.758 55.793C114.234 55.793 114.642 55.742 114.982 55.64C115.333 55.5267 115.622 55.3113 115.849 54.994C116.076 54.6653 116.246 54.195 116.359 53.583C116.472 52.9597 116.529 52.1323 116.529 51.101C116.529 50.0697 116.472 49.2423 116.359 48.619C116.257 47.9957 116.093 47.5253 115.866 47.208C115.651 46.8793 115.367 46.6583 115.016 46.545C114.665 46.4317 114.245 46.375 113.758 46.375C113.271 46.375 112.851 46.4317 112.5 46.545C112.149 46.6583 111.86 46.8793 111.633 47.208C111.418 47.5253 111.259 47.9957 111.157 48.619C111.055 49.2423 111.004 50.0697 111.004 51.101C111.004 52.1323 111.055 52.9597 111.157 53.583C111.27 54.195 111.435 54.6653 111.65 54.994C111.877 55.3113 112.166 55.5267 112.517 55.64C112.868 55.742 113.282 55.793 113.758 55.793ZM124.775 57.238C123.948 57.238 123.217 57.0453 122.582 56.66C121.959 56.2633 121.466 55.623 121.103 54.739C120.752 53.8437 120.576 52.665 120.576 51.203C120.576 49.911 120.69 48.857 120.916 48.041C121.143 47.2137 121.455 46.5733 121.851 46.12C122.259 45.6667 122.735 45.355 123.279 45.185C123.823 45.015 124.413 44.93 125.047 44.93C125.331 44.93 125.659 44.947 126.033 44.981C126.419 45.0037 126.793 45.0377 127.155 45.083C127.518 45.1283 127.801 45.1737 128.005 45.219L127.818 46.596C127.705 46.5847 127.529 46.5677 127.291 46.545C127.065 46.5223 126.81 46.4997 126.526 46.477C126.243 46.443 125.971 46.4203 125.71 46.409C125.461 46.3863 125.268 46.375 125.132 46.375C124.6 46.375 124.169 46.4033 123.84 46.46C123.512 46.5167 123.274 46.6357 123.126 46.817C122.979 46.987 122.837 47.242 122.701 47.582C122.577 47.922 122.475 48.3867 122.395 48.976C122.316 49.5653 122.276 50.3247 122.276 51.254C122.276 52.4327 122.384 53.3733 122.599 54.076C122.826 54.7673 123.053 55.2207 123.279 55.436C123.438 55.5833 123.625 55.691 123.84 55.759C124.067 55.8157 124.322 55.844 124.605 55.844C125.025 55.844 125.433 55.7987 125.829 55.708C126.237 55.6173 126.6 55.5097 126.917 55.385C127.235 55.2603 127.484 55.1527 127.665 55.062C127.858 54.9713 127.954 54.926 127.954 54.926L128.498 56.184C128.498 56.184 128.408 56.235 128.226 56.337C128.045 56.439 127.79 56.5637 127.461 56.711C127.133 56.847 126.742 56.966 126.288 57.068C125.835 57.1813 125.331 57.238 124.775 57.238ZM132.661 57L132.695 46.528L129.38 46.579V45.168H137.574V46.579L134.242 46.528L134.276 57H132.661ZM139.299 56.983C139.299 56.983 139.418 56.9943 139.656 57.017C139.894 57.0397 140.195 57.068 140.557 57.102C140.92 57.136 141.305 57.1643 141.713 57.187C142.133 57.2097 142.524 57.221 142.886 57.221C143.793 57.221 144.53 57.0793 145.096 56.796C145.663 56.5013 146.077 56.0763 146.337 55.521C146.609 54.9543 146.745 54.263 146.745 53.447C146.745 52.4383 146.575 51.6563 146.235 51.101C145.895 50.5343 145.431 50.1433 144.841 49.928C144.263 49.7013 143.606 49.588 142.869 49.588C142.382 49.588 141.934 49.605 141.526 49.639C141.13 49.6617 140.841 49.6843 140.659 49.707L140.897 50.013V45.168H139.299L139.367 50.693L139.299 56.983ZM142.971 50.965C143.413 50.965 143.753 50.9877 143.991 51.033C144.241 51.067 144.433 51.1577 144.569 51.305C144.762 51.4863 144.887 51.7923 144.943 52.223C145.011 52.6423 145.045 53.1013 145.045 53.6C145.045 54.2687 144.983 54.7447 144.858 55.028C144.734 55.3 144.609 55.4813 144.484 55.572C144.371 55.6513 144.178 55.7137 143.906 55.759C143.646 55.8043 143.306 55.827 142.886 55.827C142.388 55.827 141.923 55.8043 141.492 55.759C141.073 55.7023 140.79 55.657 140.642 55.623L140.914 56.541L140.897 50.761L140.608 51.169C140.846 51.1237 141.158 51.0783 141.543 51.033C141.94 50.9877 142.416 50.965 142.971 50.965Z" fill="white"/>
</svg>
