<svg width="30" height="30" viewBox="0 0 30 30" fill="none" xmlns="http://www.w3.org/2000/svg">
<circle cx="15" cy="15" r="14.5" stroke="#A6A6A6"/>
<path d="M9.968 12.924H11.838C11.8233 12.4547 11.8673 11.9927 11.97 11.538C12.0873 11.0687 12.2707 10.6507 12.52 10.284C12.7693 9.91733 13.0847 9.624 13.466 9.404C13.862 9.16933 14.3313 9.052 14.874 9.052C15.2847 9.052 15.6733 9.118 16.04 9.25C16.4067 9.382 16.722 9.57267 16.986 9.822C17.2647 10.0713 17.4847 10.372 17.646 10.724C17.8073 11.0613 17.888 11.4427 17.888 11.868C17.888 12.4107 17.8 12.8873 17.624 13.298C17.4627 13.7087 17.2133 14.09 16.876 14.442C16.5533 14.794 16.1427 15.146 15.644 15.498C15.1453 15.8353 14.566 16.2093 13.906 16.62C13.3633 16.9427 12.8427 17.2873 12.344 17.654C11.8453 18.0207 11.398 18.446 11.002 18.93C10.606 19.414 10.276 19.986 10.012 20.646C9.76267 21.2913 9.60133 22.076 9.528 23H19.714V21.35H11.706C11.794 20.866 11.9773 20.4407 12.256 20.074C12.5493 19.6927 12.894 19.3407 13.29 19.018C13.7007 18.6953 14.148 18.3947 14.632 18.116C15.116 17.8227 15.6 17.5293 16.084 17.236C16.568 16.928 17.0373 16.6053 17.492 16.268C17.9467 15.9307 18.35 15.5567 18.702 15.146C19.054 14.7207 19.3327 14.244 19.538 13.716C19.758 13.188 19.868 12.5793 19.868 11.89C19.868 11.1567 19.736 10.5113 19.472 9.954C19.2227 9.39667 18.878 8.93467 18.438 8.568C17.998 8.18667 17.4773 7.90067 16.876 7.71C16.2893 7.50467 15.6587 7.402 14.984 7.402C14.1627 7.402 13.4293 7.54133 12.784 7.82C12.1387 8.09867 11.596 8.48733 11.156 8.986C10.7307 9.47 10.4153 10.0493 10.21 10.724C10.0047 11.3987 9.924 12.132 9.968 12.924Z" fill="#A6A6A6"/>
</svg>
