<svg width="30" height="30" viewBox="0 0 30 30" fill="none" xmlns="http://www.w3.org/2000/svg">
<circle cx="15" cy="15" r="14.5" stroke="#A6A6A6"/>
<path d="M13.796 14.09V15.674C14.148 15.63 14.522 15.608 14.918 15.608C15.3873 15.608 15.82 15.674 16.216 15.806C16.6267 15.9233 16.9787 16.114 17.272 16.378C17.5653 16.6273 17.8 16.9427 17.976 17.324C18.152 17.6907 18.24 18.116 18.24 18.6C18.24 19.0693 18.1447 19.4947 17.954 19.876C17.778 20.2427 17.536 20.558 17.228 20.822C16.92 21.0713 16.5607 21.2693 16.15 21.416C15.7393 21.548 15.3067 21.614 14.852 21.614C13.7813 21.614 12.9673 21.2987 12.41 20.668C11.8527 20.0227 11.5593 19.194 11.53 18.182H9.66C9.64533 18.9887 9.75533 19.7073 9.99 20.338C10.2393 20.9687 10.5913 21.504 11.046 21.944C11.5007 22.3693 12.0507 22.692 12.696 22.912C13.3413 23.132 14.06 23.242 14.852 23.242C15.5853 23.242 16.2747 23.1467 16.92 22.956C17.58 22.7507 18.152 22.45 18.636 22.054C19.12 21.658 19.5013 21.1667 19.78 20.58C20.0733 19.9787 20.22 19.2893 20.22 18.512C20.22 17.5733 19.9853 16.7593 19.516 16.07C19.0613 15.3807 18.3573 14.9333 17.404 14.728V14.684C18.02 14.4053 18.5333 13.9947 18.944 13.452C19.3547 12.9093 19.56 12.286 19.56 11.582C19.56 10.8633 19.4353 10.24 19.186 9.712C18.9513 9.184 18.6213 8.75133 18.196 8.414C17.7707 8.07667 17.2647 7.82733 16.678 7.666C16.106 7.49 15.4827 7.402 14.808 7.402C14.0307 7.402 13.3413 7.52667 12.74 7.776C12.1533 8.02533 11.662 8.37 11.266 8.81C10.87 9.25 10.562 9.778 10.342 10.394C10.1367 11.01 10.0193 11.692 9.99 12.44H11.86C11.86 11.9853 11.9187 11.5527 12.036 11.142C12.1533 10.7313 12.3293 10.372 12.564 10.064C12.8133 9.756 13.1213 9.514 13.488 9.338C13.8693 9.14733 14.3093 9.052 14.808 9.052C15.6 9.052 16.26 9.26467 16.788 9.69C17.316 10.1007 17.58 10.724 17.58 11.56C17.58 11.9707 17.4993 12.3373 17.338 12.66C17.1767 12.9827 16.9567 13.254 16.678 13.474C16.414 13.6793 16.0987 13.8407 15.732 13.958C15.38 14.0607 15.006 14.112 14.61 14.112H14.214C14.1407 14.112 14.0673 14.112 13.994 14.112C13.9353 14.112 13.8693 14.1047 13.796 14.09Z" fill="#A6A6A6"/>
</svg>
