<svg width="30" height="30" viewBox="0 0 30 30" fill="none" xmlns="http://www.w3.org/2000/svg">
<circle cx="15" cy="15" r="14.5" stroke="#A6A6A6"/>
<path d="M19.34 9.316V7.666H11.64L10.188 15.762L11.794 15.85C12.1607 15.41 12.5787 15.058 13.048 14.794C13.532 14.5153 14.082 14.376 14.698 14.376C15.226 14.376 15.7027 14.464 16.128 14.64C16.568 14.816 16.942 15.0653 17.25 15.388C17.558 15.696 17.7927 16.07 17.954 16.51C18.13 16.9353 18.218 17.4047 18.218 17.918C18.218 18.534 18.13 19.0767 17.954 19.546C17.778 20.0007 17.536 20.382 17.228 20.69C16.9347 20.998 16.5827 21.2327 16.172 21.394C15.776 21.5407 15.358 21.614 14.918 21.614C14.4487 21.614 14.016 21.548 13.62 21.416C13.2387 21.2693 12.9013 21.0713 12.608 20.822C12.3293 20.558 12.102 20.2573 11.926 19.92C11.7647 19.568 11.6693 19.194 11.64 18.798H9.77C9.78467 19.502 9.924 20.1327 10.188 20.69C10.452 21.2473 10.8113 21.7167 11.266 22.098C11.7207 22.4647 12.2413 22.7507 12.828 22.956C13.4293 23.1467 14.0673 23.242 14.742 23.242C15.6513 23.242 16.4433 23.1027 17.118 22.824C17.8073 22.5307 18.3793 22.142 18.834 21.658C19.2887 21.174 19.626 20.624 19.846 20.008C20.0807 19.3773 20.198 18.732 20.198 18.072C20.198 17.1773 20.066 16.4 19.802 15.74C19.538 15.0653 19.1787 14.508 18.724 14.068C18.2693 13.6133 17.734 13.276 17.118 13.056C16.502 12.836 15.8493 12.726 15.16 12.726C14.632 12.726 14.0967 12.8213 13.554 13.012C13.026 13.188 12.5933 13.4667 12.256 13.848L12.212 13.804L13.048 9.316H19.34Z" fill="#A6A6A6"/>
</svg>
