<svg width="30" height="30" viewBox="0 0 30 30" fill="none" xmlns="http://www.w3.org/2000/svg">
<circle cx="15" cy="15" r="14.5" stroke="#A6A6A6"/>
<path d="M18.108 11.384H19.978C19.8607 10.0933 19.4207 9.11067 18.658 8.436C17.8953 7.74667 16.8687 7.402 15.578 7.402C14.4633 7.402 13.5393 7.63667 12.806 8.106C12.0727 8.57533 11.486 9.19867 11.046 9.976C10.606 10.7533 10.2907 11.648 10.1 12.66C9.924 13.6573 9.836 14.6913 9.836 15.762C9.836 16.5833 9.89467 17.434 10.012 18.314C10.144 19.194 10.4007 20.0007 10.782 20.734C11.1633 21.4673 11.706 22.0687 12.41 22.538C13.114 23.0073 14.0453 23.242 15.204 23.242C16.1867 23.242 17.008 23.0807 17.668 22.758C18.3427 22.4207 18.878 22.0027 19.274 21.504C19.6847 20.9907 19.978 20.426 20.154 19.81C20.33 19.194 20.418 18.6 20.418 18.028C20.418 17.3093 20.308 16.642 20.088 16.026C19.868 15.41 19.5527 14.8747 19.142 14.42C18.746 13.9653 18.2473 13.6133 17.646 13.364C17.0593 13.1 16.392 12.968 15.644 12.968C14.7933 12.968 14.038 13.1293 13.378 13.452C12.7327 13.7747 12.19 14.2953 11.75 15.014L11.706 14.97C11.7207 14.3687 11.7793 13.7233 11.882 13.034C11.9847 12.3447 12.168 11.7067 12.432 11.12C12.7107 10.5187 13.092 10.0273 13.576 9.646C14.06 9.25 14.698 9.052 15.49 9.052C16.238 9.052 16.8393 9.26467 17.294 9.69C17.7487 10.1153 18.02 10.68 18.108 11.384ZM15.292 14.618C15.82 14.618 16.282 14.7133 16.678 14.904C17.074 15.0947 17.404 15.3513 17.668 15.674C17.932 15.982 18.1227 16.356 18.24 16.796C18.372 17.2213 18.438 17.676 18.438 18.16C18.438 18.6147 18.3647 19.0547 18.218 19.48C18.086 19.8907 17.888 20.2573 17.624 20.58C17.36 20.9027 17.03 21.1593 16.634 21.35C16.2527 21.526 15.8053 21.614 15.292 21.614C14.7787 21.614 14.3167 21.526 13.906 21.35C13.51 21.1593 13.1727 20.91 12.894 20.602C12.63 20.294 12.4247 19.9273 12.278 19.502C12.1313 19.0767 12.058 18.622 12.058 18.138C12.058 17.654 12.124 17.1993 12.256 16.774C12.4027 16.334 12.6153 15.96 12.894 15.652C13.1727 15.3293 13.51 15.08 13.906 14.904C14.302 14.7133 14.764 14.618 15.292 14.618Z" fill="#A6A6A6"/>
</svg>
