<svg width="30" height="30" viewBox="0 0 30 30" fill="none" xmlns="http://www.w3.org/2000/svg">
<circle cx="15" cy="15" r="14.5" stroke="#A6A6A6"/>
<path d="M20.198 9.272V7.666H10.1V9.426H18.284C17.4627 10.2913 16.6927 11.2373 15.974 12.264C15.27 13.2907 14.6467 14.3833 14.104 15.542C13.5613 16.686 13.114 17.8887 12.762 19.15C12.4247 20.3967 12.212 21.68 12.124 23H14.214C14.2873 21.7827 14.4927 20.5287 14.83 19.238C15.1673 17.9473 15.6 16.6933 16.128 15.476C16.6707 14.2587 17.2867 13.1147 17.976 12.044C18.6653 10.9733 19.406 10.0493 20.198 9.272Z" fill="#A6A6A6"/>
</svg>
