<svg width="102" height="11" viewBox="0 0 102 11" fill="none" xmlns="http://www.w3.org/2000/svg">
<path d="M101 1C100.845 0.52478 100.845 0.524778 100.845 0.524777C100.845 0.524779 100.845 0.52478 100.845 0.524784C100.845 0.524791 100.844 0.524803 100.844 0.52482C100.844 0.524857 100.844 0.524914 100.844 0.524993C100.843 0.525152 100.843 0.525398 100.842 0.525732C100.84 0.5264 100.836 0.527414 100.832 0.528774C100.824 0.531492 100.811 0.535586 100.795 0.541022C100.761 0.551894 100.711 0.56813 100.644 0.589458C100.512 0.632113 100.314 0.695127 100.056 0.776305C99.5407 0.938662 98.7836 1.17365 97.8194 1.46369L98.1075 2.4213C99.076 2.12994 99.8372 1.89369 100.357 1.73014C100.616 1.64837 100.816 1.58477 100.95 1.54155C101.018 1.51994 101.069 1.50343 101.103 1.49228C101.12 1.48671 101.133 1.48248 101.142 1.47962C101.146 1.47819 101.15 1.47711 101.152 1.47637C101.153 1.47601 101.154 1.47573 101.154 1.47553C101.155 1.47544 101.155 1.47536 101.155 1.47531C101.155 1.47529 101.155 1.47526 101.155 1.47525C101.155 1.47524 101.155 1.47523 101.155 1.47523C101.155 1.47522 101.155 1.47522 101 1ZM91.6934 3.21997C89.8358 3.72806 87.7582 4.27486 85.5209 4.82964L85.7615 5.80024C88.0075 5.24335 90.0928 4.6945 91.9573 4.18454L91.6934 3.21997ZM79.3232 6.28313C77.3038 6.72869 75.2131 7.16154 73.0838 7.56494L73.27 8.54746C75.41 8.14201 77.5106 7.70711 79.5386 7.25964L79.3232 6.28313ZM66.8086 8.64044C64.7014 8.9609 62.5886 9.23828 60.5 9.45741L60.6043 10.4519C62.7103 10.231 64.8385 9.95155 66.9589 9.62908L66.8086 8.64044ZM54.1651 9.93214C53.0925 9.97662 52.0359 10 51 10V11C52.0509 11 53.1213 10.9763 54.2065 10.9313L54.1651 9.93214ZM51 10C49.9641 10 48.9075 9.97662 47.8349 9.93214L47.7935 10.9313C48.8787 10.9763 49.9491 11 51 11V10ZM41.5 9.45741C39.4114 9.23828 37.2986 8.9609 35.1914 8.64045L35.0411 9.62908C37.1615 9.95155 39.2897 10.231 41.3957 10.4519L41.5 9.45741ZM28.9162 7.56494C26.7869 7.16154 24.6962 6.72869 22.6768 6.28313L22.4614 7.25964C24.4894 7.70712 26.59 8.14201 28.73 8.54746L28.9162 7.56494ZM16.4791 4.82964C14.2418 4.27486 12.1642 3.72806 10.3066 3.21997L10.0427 4.18454C11.9072 4.6945 13.9925 5.24335 16.2385 5.80025L16.4791 4.82964ZM4.18056 1.4637C3.21643 1.17365 2.45934 0.938662 1.94368 0.776305C1.68584 0.695127 1.48838 0.632113 1.35558 0.589458C1.28918 0.56813 1.23894 0.551894 1.20541 0.541022C1.18864 0.535586 1.17605 0.531492 1.1677 0.528774C1.16353 0.527414 1.16042 0.5264 1.15837 0.525732C1.15735 0.525398 1.15659 0.525152 1.15611 0.524993C1.15586 0.524914 1.15569 0.524857 1.15558 0.52482C1.15553 0.524803 1.15549 0.524791 1.15546 0.524784C1.15546 0.52478 1.15545 0.524779 1.15545 0.524777C1.15545 0.524778 1.15546 0.52478 1 1C0.844543 1.47522 0.844559 1.47522 0.844582 1.47523C0.844589 1.47523 0.844612 1.47524 0.844635 1.47525C0.844681 1.47526 0.844742 1.47529 0.844826 1.47531C0.844986 1.47536 0.845215 1.47544 0.845505 1.47553C0.8461 1.47573 0.846954 1.47601 0.848083 1.47637C0.850334 1.47711 0.853653 1.47819 0.85804 1.47962C0.866806 1.48248 0.879814 1.48671 0.897011 1.49228C0.931396 1.50343 0.982498 1.51994 1.04978 1.54155C1.18435 1.58477 1.38364 1.64837 1.64336 1.73015C2.1628 1.89369 2.92397 2.12994 3.89249 2.4213L4.18056 1.4637Z" fill="#008D3E"/>
</svg>
